<svg xmlns="http://www.w3.org/2000/svg" width="860" height="480" viewBox="0 0 860 480">
<style>
  .title { font: 700 18px -apple-system, BlinkMacSystemFont, "Segoe UI", sans-serif; fill: #111827; }
  .axis { stroke: #374151; stroke-width: 1.2; }
  .grid { stroke: #e5e7eb; stroke-width: 1; }
  .tick { font: 11px -apple-system, BlinkMacSystemFont, "Segoe UI", sans-serif; fill: #4b5563; }
  .label { font: 13px -apple-system, BlinkMacSystemFont, "Segoe UI", sans-serif; fill: #374151; }
  .legend { font: 12px -apple-system, BlinkMacSystemFont, "Segoe UI", sans-serif; fill: #374151; }
</style>
<rect width="100%" height="100%" fill="#ffffff" />
<text x="430.0" y="26" text-anchor="middle" class="title">Breakthrough Median By Control Plane</text>
<line x1="78" y1="408" x2="680" y2="408" class="axis" />
<line x1="78" y1="408" x2="78" y2="48" class="axis" />
<text x="379.0" y="462" text-anchor="middle" class="label">x control plane (voxels)</text>
<text x="18" y="228.0" text-anchor="middle" class="label" transform="rotate(-90 18,228.0)">median first-passage time (steps)</text>
<line x1="78.0" y1="48" x2="78.0" y2="408" class="grid" />
<text x="78.0" y="426" text-anchor="middle" class="tick">6</text>
<line x1="78" y1="408.0" x2="680" y2="408.0" class="grid" />
<text x="70" y="412.0" text-anchor="end" class="tick">176.1</text>
<line x1="228.5" y1="48" x2="228.5" y2="408" class="grid" />
<text x="228.5" y="426" text-anchor="middle" class="tick">8</text>
<line x1="78" y1="318.0" x2="680" y2="318.0" class="grid" />
<text x="70" y="322.0" text-anchor="end" class="tick">257.2</text>
<line x1="379.0" y1="48" x2="379.0" y2="408" class="grid" />
<text x="379.0" y="426" text-anchor="middle" class="tick">10</text>
<line x1="78" y1="228.0" x2="680" y2="228.0" class="grid" />
<text x="70" y="232.0" text-anchor="end" class="tick">338.2</text>
<line x1="529.5" y1="48" x2="529.5" y2="408" class="grid" />
<text x="529.5" y="426" text-anchor="middle" class="tick">12</text>
<line x1="78" y1="138.0" x2="680" y2="138.0" class="grid" />
<text x="70" y="142.0" text-anchor="end" class="tick">419.3</text>
<line x1="680.0" y1="48" x2="680.0" y2="408" class="grid" />
<text x="680.0" y="426" text-anchor="middle" class="tick">14</text>
<line x1="78" y1="48.0" x2="680" y2="48.0" class="grid" />
<text x="70" y="52.0" text-anchor="end" class="tick">500.4</text>
<polyline fill="none" stroke="#111827" stroke-width="2.6" points="78.0,358.2 379.0,242.7 680.0,157.2" />
<circle cx="78.0" cy="358.2" r="3.2" fill="#111827" />
<circle cx="379.0" cy="242.7" r="3.2" fill="#111827" />
<circle cx="680.0" cy="157.2" r="3.2" fill="#111827" />
<line x1="702" y1="48" x2="728" y2="48" stroke="#111827" stroke-width="3" />
<text x="736" y="52" class="legend">reference</text>
<polyline fill="none" stroke="#9ca3af" stroke-width="2.6" points="78.0,264.9 379.0,123.9 680.0,72.8" />
<circle cx="78.0" cy="264.9" r="3.2" fill="#9ca3af" />
<circle cx="379.0" cy="123.9" r="3.2" fill="#9ca3af" />
<circle cx="680.0" cy="72.8" r="3.2" fill="#9ca3af" />
<line x1="702" y1="72" x2="728" y2="72" stroke="#9ca3af" stroke-width="3" />
<text x="736" y="76" class="legend">unconditional</text>
<polyline fill="none" stroke="#2563eb" stroke-width="2.6" points="78.0,375.4 379.0,249.4 680.0,135.0" />
<circle cx="78.0" cy="375.4" r="3.2" fill="#2563eb" />
<circle cx="379.0" cy="249.4" r="3.2" fill="#2563eb" />
<circle cx="680.0" cy="135.0" r="3.2" fill="#2563eb" />
<line x1="702" y1="96" x2="728" y2="96" stroke="#2563eb" stroke-width="3" />
<text x="736" y="100" class="legend">knn_conditional</text>
<polyline fill="none" stroke="#dc2626" stroke-width="2.6" points="78.0,296.0 379.0,247.2 680.0,166.1" />
<circle cx="78.0" cy="296.0" r="3.2" fill="#dc2626" />
<circle cx="379.0" cy="247.2" r="3.2" fill="#dc2626" />
<circle cx="680.0" cy="166.1" r="3.2" fill="#dc2626" />
<line x1="702" y1="120" x2="728" y2="120" stroke="#dc2626" stroke-width="3" />
<text x="736" y="124" class="legend">gaussian_bayes</text>
<polyline fill="none" stroke="#f59e0b" stroke-width="2.6" points="78.0,316.6 379.0,196.1 680.0,212.7" />
<circle cx="78.0" cy="316.6" r="3.2" fill="#f59e0b" />
<circle cx="379.0" cy="196.1" r="3.2" fill="#f59e0b" />
<circle cx="680.0" cy="212.7" r="3.2" fill="#f59e0b" />
<line x1="702" y1="144" x2="728" y2="144" stroke="#f59e0b" stroke-width="3" />
<text x="736" y="148" class="legend">adaptive_gaussian</text>
<polyline fill="none" stroke="#374151" stroke-width="2.6" points="78.0,383.2 379.0,232.2 680.0,195.0" />
<circle cx="78.0" cy="383.2" r="3.2" fill="#374151" />
<circle cx="379.0" cy="232.2" r="3.2" fill="#374151" />
<circle cx="680.0" cy="195.0" r="3.2" fill="#374151" />
<line x1="702" y1="168" x2="728" y2="168" stroke="#374151" stroke-width="3" />
<text x="736" y="172" class="legend">horizon_rerank</text>
<polyline fill="none" stroke="#7c3aed" stroke-width="2.6" points="78.0,300.5 379.0,274.9 680.0,231.6" />
<circle cx="78.0" cy="300.5" r="3.2" fill="#7c3aed" />
<circle cx="379.0" cy="274.9" r="3.2" fill="#7c3aed" />
<circle cx="680.0" cy="231.6" r="3.2" fill="#7c3aed" />
<line x1="702" y1="192" x2="728" y2="192" stroke="#7c3aed" stroke-width="3" />
<text x="736" y="196" class="legend">contrastive</text>
<polyline fill="none" stroke="#059669" stroke-width="2.6" points="78.0,262.1 379.0,162.8 680.0,170.0" />
<circle cx="78.0" cy="262.1" r="3.2" fill="#059669" />
<circle cx="379.0" cy="162.8" r="3.2" fill="#059669" />
<circle cx="680.0" cy="170.0" r="3.2" fill="#059669" />
<line x1="702" y1="216" x2="728" y2="216" stroke="#059669" stroke-width="3" />
<text x="736" y="220" class="legend">hybrid</text>
</svg>
