<svg xmlns="http://www.w3.org/2000/svg" width="860" height="480" viewBox="0 0 860 480">
<style>
  .title { font: 700 18px -apple-system, BlinkMacSystemFont, "Segoe UI", sans-serif; fill: #111827; }
  .axis { stroke: #374151; stroke-width: 1.2; }
  .grid { stroke: #e5e7eb; stroke-width: 1; }
  .tick { font: 11px -apple-system, BlinkMacSystemFont, "Segoe UI", sans-serif; fill: #4b5563; }
  .label { font: 13px -apple-system, BlinkMacSystemFont, "Segoe UI", sans-serif; fill: #374151; }
  .legend { font: 12px -apple-system, BlinkMacSystemFont, "Segoe UI", sans-serif; fill: #374151; }
</style>
<rect width="100%" height="100%" fill="#ffffff" />
<text x="430.0" y="26" text-anchor="middle" class="title">Dilution Index</text>
<line x1="78" y1="408" x2="680" y2="408" class="axis" />
<line x1="78" y1="408" x2="78" y2="48" class="axis" />
<text x="379.0" y="462" text-anchor="middle" class="label">time step</text>
<text x="18" y="228.0" text-anchor="middle" class="label" transform="rotate(-90 18,228.0)">occupancy entropy volume</text>
<line x1="78.0" y1="48" x2="78.0" y2="408" class="grid" />
<text x="78.0" y="426" text-anchor="middle" class="tick">100</text>
<line x1="78" y1="408.0" x2="680" y2="408.0" class="grid" />
<text x="70" y="412.0" text-anchor="end" class="tick">1628.8</text>
<line x1="228.5" y1="48" x2="228.5" y2="408" class="grid" />
<text x="228.5" y="426" text-anchor="middle" class="tick">175</text>
<line x1="78" y1="318.0" x2="680" y2="318.0" class="grid" />
<text x="70" y="322.0" text-anchor="end" class="tick">1833.9</text>
<line x1="379.0" y1="48" x2="379.0" y2="408" class="grid" />
<text x="379.0" y="426" text-anchor="middle" class="tick">250</text>
<line x1="78" y1="228.0" x2="680" y2="228.0" class="grid" />
<text x="70" y="232.0" text-anchor="end" class="tick">2039.1</text>
<line x1="529.5" y1="48" x2="529.5" y2="408" class="grid" />
<text x="529.5" y="426" text-anchor="middle" class="tick">325</text>
<line x1="78" y1="138.0" x2="680" y2="138.0" class="grid" />
<text x="70" y="142.0" text-anchor="end" class="tick">2244.3</text>
<line x1="680.0" y1="48" x2="680.0" y2="408" class="grid" />
<text x="680.0" y="426" text-anchor="middle" class="tick">400</text>
<line x1="78" y1="48.0" x2="680" y2="48.0" class="grid" />
<text x="70" y="52.0" text-anchor="end" class="tick">2449.5</text>
<polyline fill="none" stroke="#111827" stroke-width="2.6" points="78.0,316.3 278.7,281.3 479.3,199.9 680.0,214.0" />
<circle cx="78.0" cy="316.3" r="3.2" fill="#111827" />
<circle cx="278.7" cy="281.3" r="3.2" fill="#111827" />
<circle cx="479.3" cy="199.9" r="3.2" fill="#111827" />
<circle cx="680.0" cy="214.0" r="3.2" fill="#111827" />
<line x1="702" y1="48" x2="728" y2="48" stroke="#111827" stroke-width="3" />
<text x="736" y="52" class="legend">reference</text>
<polyline fill="none" stroke="#9ca3af" stroke-width="2.6" points="78.0,383.2 278.7,241.6 479.3,268.3 680.0,180.1" />
<circle cx="78.0" cy="383.2" r="3.2" fill="#9ca3af" />
<circle cx="278.7" cy="241.6" r="3.2" fill="#9ca3af" />
<circle cx="479.3" cy="268.3" r="3.2" fill="#9ca3af" />
<circle cx="680.0" cy="180.1" r="3.2" fill="#9ca3af" />
<line x1="702" y1="72" x2="728" y2="72" stroke="#9ca3af" stroke-width="3" />
<text x="736" y="76" class="legend">unconditional</text>
<polyline fill="none" stroke="#2563eb" stroke-width="2.6" points="78.0,268.3 278.7,199.9 479.3,104.7 680.0,135.5" />
<circle cx="78.0" cy="268.3" r="3.2" fill="#2563eb" />
<circle cx="278.7" cy="199.9" r="3.2" fill="#2563eb" />
<circle cx="479.3" cy="104.7" r="3.2" fill="#2563eb" />
<circle cx="680.0" cy="135.5" r="3.2" fill="#2563eb" />
<line x1="702" y1="96" x2="728" y2="96" stroke="#2563eb" stroke-width="3" />
<text x="736" y="100" class="legend">knn_conditional</text>
<polyline fill="none" stroke="#dc2626" stroke-width="2.6" points="78.0,273.2 278.7,180.1 479.3,150.6 680.0,104.7" />
<circle cx="78.0" cy="273.2" r="3.2" fill="#dc2626" />
<circle cx="278.7" cy="180.1" r="3.2" fill="#dc2626" />
<circle cx="479.3" cy="150.6" r="3.2" fill="#dc2626" />
<circle cx="680.0" cy="104.7" r="3.2" fill="#dc2626" />
<line x1="702" y1="120" x2="728" y2="120" stroke="#dc2626" stroke-width="3" />
<text x="736" y="124" class="legend">gaussian_bayes</text>
<polyline fill="none" stroke="#f59e0b" stroke-width="2.6" points="78.0,236.4 278.7,165.5 479.3,171.0 680.0,120.2" />
<circle cx="78.0" cy="236.4" r="3.2" fill="#f59e0b" />
<circle cx="278.7" cy="165.5" r="3.2" fill="#f59e0b" />
<circle cx="479.3" cy="171.0" r="3.2" fill="#f59e0b" />
<circle cx="680.0" cy="120.2" r="3.2" fill="#f59e0b" />
<line x1="702" y1="144" x2="728" y2="144" stroke="#f59e0b" stroke-width="3" />
<text x="736" y="148" class="legend">adaptive_gaussian</text>
<polyline fill="none" stroke="#374151" stroke-width="2.6" points="78.0,299.0 278.7,180.1 479.3,180.1 680.0,180.1" />
<circle cx="78.0" cy="299.0" r="3.2" fill="#374151" />
<circle cx="278.7" cy="180.1" r="3.2" fill="#374151" />
<circle cx="479.3" cy="180.1" r="3.2" fill="#374151" />
<circle cx="680.0" cy="180.1" r="3.2" fill="#374151" />
<line x1="702" y1="168" x2="728" y2="168" stroke="#374151" stroke-width="3" />
<text x="736" y="172" class="legend">horizon_rerank</text>
<polyline fill="none" stroke="#7c3aed" stroke-width="2.6" points="78.0,233.1 278.7,150.6 479.3,104.7 680.0,72.8" />
<circle cx="78.0" cy="233.1" r="3.2" fill="#7c3aed" />
<circle cx="278.7" cy="150.6" r="3.2" fill="#7c3aed" />
<circle cx="479.3" cy="104.7" r="3.2" fill="#7c3aed" />
<circle cx="680.0" cy="72.8" r="3.2" fill="#7c3aed" />
<line x1="702" y1="192" x2="728" y2="192" stroke="#7c3aed" stroke-width="3" />
<text x="736" y="196" class="legend">contrastive</text>
<polyline fill="none" stroke="#059669" stroke-width="2.6" points="78.0,324.0 278.7,156.3 479.3,156.3 680.0,135.5" />
<circle cx="78.0" cy="324.0" r="3.2" fill="#059669" />
<circle cx="278.7" cy="156.3" r="3.2" fill="#059669" />
<circle cx="479.3" cy="156.3" r="3.2" fill="#059669" />
<circle cx="680.0" cy="135.5" r="3.2" fill="#059669" />
<line x1="702" y1="216" x2="728" y2="216" stroke="#059669" stroke-width="3" />
<text x="736" y="220" class="legend">hybrid</text>
</svg>
