<svg xmlns="http://www.w3.org/2000/svg" width="900" height="480" viewBox="0 0 900 480">
<style>
  .title { font: 700 18px -apple-system, BlinkMacSystemFont, "Segoe UI", sans-serif; fill: #111827; }
  .axis { stroke: #374151; stroke-width: 1.2; }
  .grid { stroke: #e5e7eb; stroke-width: 1; }
  .tick { font: 11px -apple-system, BlinkMacSystemFont, "Segoe UI", sans-serif; fill: #4b5563; }
  .label { font: 13px -apple-system, BlinkMacSystemFont, "Segoe UI", sans-serif; fill: #374151; }
  .legend { font: 12px -apple-system, BlinkMacSystemFont, "Segoe UI", sans-serif; fill: #374151; }
</style>
<rect width="100%" height="100%" fill="#ffffff" />
<text x="450.0" y="26" text-anchor="middle" class="title">Sampler Errors</text>
<line x1="78" y1="376" x2="720" y2="376" class="axis" />
<line x1="78" y1="376" x2="78" y2="48" class="axis" />
<text x="399.0" y="462" text-anchor="middle" class="label">sampler</text>
<text x="18" y="212.0" text-anchor="middle" class="label" transform="rotate(-90 18,212.0)">scaled error</text>
<rect x="78.0" y="90.8" width="15.0" height="285.2" fill="#dc2626" />
<rect x="96.3" y="273.7" width="15.0" height="102.3" fill="#2563eb" />
<rect x="114.7" y="328.5" width="15.0" height="47.5" fill="#7c3aed" />
<rect x="133.0" y="353.7" width="15.0" height="22.3" fill="#059669" />
<text x="123.9" y="394" class="tick" text-anchor="middle" transform="rotate(35 123.9,394)">unconditional</text>
<rect x="169.7" y="270.9" width="15.0" height="105.1" fill="#dc2626" />
<rect x="188.1" y="224.0" width="15.0" height="152.0" fill="#2563eb" />
<rect x="206.4" y="312.1" width="15.0" height="63.9" fill="#7c3aed" />
<rect x="224.7" y="360.6" width="15.0" height="15.4" fill="#059669" />
<text x="215.6" y="394" class="tick" text-anchor="middle" transform="rotate(35 215.6,394)">knn_conditional</text>
<rect x="261.4" y="296.6" width="15.0" height="79.4" fill="#dc2626" />
<rect x="279.8" y="295.9" width="15.0" height="80.1" fill="#2563eb" />
<rect x="298.1" y="312.1" width="15.0" height="63.9" fill="#7c3aed" />
<rect x="316.5" y="358.9" width="15.0" height="17.1" fill="#059669" />
<text x="307.3" y="394" class="tick" text-anchor="middle" transform="rotate(35 307.3,394)">gaussian_bayes</text>
<rect x="353.1" y="249.7" width="15.0" height="126.3" fill="#dc2626" />
<rect x="371.5" y="209.8" width="15.0" height="166.2" fill="#2563eb" />
<rect x="389.8" y="308.0" width="15.0" height="68.0" fill="#7c3aed" />
<rect x="408.2" y="364.0" width="15.0" height="12.0" fill="#059669" />
<text x="399.0" y="394" class="tick" text-anchor="middle" transform="rotate(35 399.0,394)">adaptive_gaussian</text>
<rect x="444.9" y="152.4" width="15.0" height="223.6" fill="#dc2626" />
<rect x="463.2" y="166.4" width="15.0" height="209.6" fill="#2563eb" />
<rect x="481.5" y="338.8" width="15.0" height="37.2" fill="#7c3aed" />
<rect x="499.9" y="357.1" width="15.0" height="18.9" fill="#059669" />
<text x="490.7" y="394" class="tick" text-anchor="middle" transform="rotate(35 490.7,394)">horizon_rerank</text>
<rect x="536.6" y="228.4" width="15.0" height="147.6" fill="#dc2626" />
<rect x="554.9" y="177.2" width="15.0" height="198.8" fill="#2563eb" />
<rect x="573.3" y="282.4" width="15.0" height="93.6" fill="#7c3aed" />
<rect x="591.6" y="367.4" width="15.0" height="8.6" fill="#059669" />
<text x="582.4" y="394" class="tick" text-anchor="middle" transform="rotate(35 582.4,394)">contrastive</text>
<rect x="628.3" y="243.1" width="15.0" height="132.9" fill="#dc2626" />
<rect x="646.6" y="275.1" width="15.0" height="100.9" fill="#2563eb" />
<rect x="665.0" y="322.5" width="15.0" height="53.5" fill="#7c3aed" />
<rect x="683.3" y="316.0" width="15.0" height="60.0" fill="#059669" />
<text x="674.1" y="394" class="tick" text-anchor="middle" transform="rotate(35 674.1,394)">hybrid</text>
<rect x="742" y="38" width="18" height="12" fill="#dc2626" />
<text x="768" y="48" class="legend">BTC</text>
<rect x="742" y="62" width="18" height="12" fill="#2563eb" />
<text x="768" y="72" class="legend">pair</text>
<rect x="742" y="86" width="18" height="12" fill="#7c3aed" />
<text x="768" y="96" class="legend">dilution</text>
<rect x="742" y="110" width="18" height="12" fill="#059669" />
<text x="768" y="120" class="legend">reaction</text>
</svg>
