<?xml version="1.0" encoding="utf-8" standalone="no"?>
<!DOCTYPE svg PUBLIC "-//W3C//DTD SVG 1.1//EN"
  "http://www.w3.org/Graphics/SVG/1.1/DTD/svg11.dtd">
<svg xmlns:xlink="http://www.w3.org/1999/xlink" width="531.66084pt" height="342.72267pt" viewBox="0 0 531.66084 342.72267" xmlns="http://www.w3.org/2000/svg" version="1.1">
 <metadata>
  <rdf:RDF xmlns:dc="http://purl.org/dc/elements/1.1/" xmlns:cc="http://creativecommons.org/ns#" xmlns:rdf="http://www.w3.org/1999/02/22-rdf-syntax-ns#">
   <cc:Work>
    <dc:type rdf:resource="http://purl.org/dc/dcmitype/StillImage"/>
    <dc:date>2026-05-24T15:03:07.919343</dc:date>
    <dc:format>image/svg+xml</dc:format>
    <dc:creator>
     <cc:Agent>
      <dc:title>Matplotlib v3.10.8, https://matplotlib.org/</dc:title>
     </cc:Agent>
    </dc:creator>
   </cc:Work>
  </rdf:RDF>
 </metadata>
 <defs>
  <style type="text/css">*{stroke-linejoin: round; stroke-linecap: butt}</style>
 </defs>
 <g id="figure_1">
  <g id="patch_1">
   <path d="M 0 342.72267 
L 531.66084 342.72267 
L 531.66084 0 
L 0 0 
z
" style="fill: #ffffff"/>
  </g>
  <g id="axes_1">
   <g id="patch_2">
    <path d="M 46.571428 174.364259 
L 257.82499 174.364259 
L 257.82499 63.721694 
L 46.571428 63.721694 
z
" style="fill: #ffffff"/>
   </g>
   <g id="FillBetweenPolyCollection_1">
    <defs>
     <path id="mb728412b47" d="M 56.173863 -248.37436 
L 56.173863 -176.357293 
L 152.198209 -195.946291 
L 248.222556 -204.159758 
L 248.222556 -263.08954 
L 248.222556 -263.08954 
L 152.198209 -261.101536 
L 56.173863 -248.37436 
z
"/>
    </defs>
    <g clip-path="url(#p0c5ca1c817)">
     <use xlink:href="#mb728412b47" x="0" y="342.72267" style="fill: #111827; fill-opacity: 0.08"/>
    </g>
   </g>
   <g id="FillBetweenPolyCollection_2">
    <defs>
     <path id="ma2dfd409f8" d="M 56.173863 -263.479248 
L 56.173863 -174.117705 
L 152.198209 -192.611573 
L 248.222556 -212.545882 
L 248.222556 -270.849171 
L 248.222556 -270.849171 
L 152.198209 -268.254406 
L 56.173863 -263.479248 
z
"/>
    </defs>
    <g clip-path="url(#p0c5ca1c817)">
     <use xlink:href="#ma2dfd409f8" x="0" y="342.72267" style="fill: #2563eb; fill-opacity: 0.08"/>
    </g>
   </g>
   <g id="FillBetweenPolyCollection_3">
    <defs>
     <path id="m7e25ba5d42" d="M 56.173863 -264.599043 
L 56.173863 -173.387619 
L 152.198209 -191.78776 
L 248.222556 -210.518413 
L 248.222556 -269.507391 
L 248.222556 -269.507391 
L 152.198209 -268.594784 
L 56.173863 -264.599043 
z
"/>
    </defs>
    <g clip-path="url(#p0c5ca1c817)">
     <use xlink:href="#m7e25ba5d42" x="0" y="342.72267" style="fill: #1f4e79; fill-opacity: 0.08"/>
    </g>
   </g>
   <g id="FillBetweenPolyCollection_4">
    <defs>
     <path id="m82f1093df8" d="M 56.173863 -265.161406 
L 56.173863 -174.86259 
L 152.198209 -192.35999 
L 248.222556 -214.237906 
L 248.222556 -273.971769 
L 248.222556 -273.971769 
L 152.198209 -269.517257 
L 56.173863 -265.161406 
z
"/>
    </defs>
    <g clip-path="url(#p0c5ca1c817)">
     <use xlink:href="#m82f1093df8" x="0" y="342.72267" style="fill: #2f855a; fill-opacity: 0.08"/>
    </g>
   </g>
   <g id="matplotlib.axis_1">
    <g id="xtick_1">
     <g id="line2d_1">
      <path d="M 56.173863 174.364259 
L 56.173863 63.721694 
" clip-path="url(#p0c5ca1c817)" style="fill: none; stroke: #e5e7eb; stroke-width: 0.8; stroke-linecap: square"/>
     </g>
     <g id="line2d_2">
      <defs>
       <path id="m8e97dc3f98" d="M 0 0 
L 0 3.5 
" style="stroke: #000000; stroke-width: 0.8"/>
      </defs>
      <g>
       <use xlink:href="#m8e97dc3f98" x="56.173863" y="174.364259" style="stroke: #000000; stroke-width: 0.8"/>
      </g>
     </g>
     <g id="text_1">
      <text style="font-size: 9.1px; font-family: 'DejaVu Sans'; text-anchor: middle" x="56.173863" y="188.278837" transform="rotate(-0 56.173863 188.278837)">6</text>
     </g>
    </g>
    <g id="xtick_2">
     <g id="line2d_3">
      <path d="M 152.198209 174.364259 
L 152.198209 63.721694 
" clip-path="url(#p0c5ca1c817)" style="fill: none; stroke: #e5e7eb; stroke-width: 0.8; stroke-linecap: square"/>
     </g>
     <g id="line2d_4">
      <g>
       <use xlink:href="#m8e97dc3f98" x="152.198209" y="174.364259" style="stroke: #000000; stroke-width: 0.8"/>
      </g>
     </g>
     <g id="text_2">
      <text style="font-size: 9.1px; font-family: 'DejaVu Sans'; text-anchor: middle" x="152.198209" y="188.278837" transform="rotate(-0 152.198209 188.278837)">10</text>
     </g>
    </g>
    <g id="xtick_3">
     <g id="line2d_5">
      <path d="M 248.222556 174.364259 
L 248.222556 63.721694 
" clip-path="url(#p0c5ca1c817)" style="fill: none; stroke: #e5e7eb; stroke-width: 0.8; stroke-linecap: square"/>
     </g>
     <g id="line2d_6">
      <g>
       <use xlink:href="#m8e97dc3f98" x="248.222556" y="174.364259" style="stroke: #000000; stroke-width: 0.8"/>
      </g>
     </g>
     <g id="text_3">
      <text style="font-size: 9.1px; font-family: 'DejaVu Sans'; text-anchor: middle" x="248.222556" y="188.278837" transform="rotate(-0 248.222556 188.278837)">14</text>
     </g>
    </g>
    <g id="text_4">
     <text style="font-size: 8.9px; font-family: 'DejaVu Sans'; text-anchor: middle" x="152.198209" y="200.933962" transform="rotate(-0 152.198209 200.933962)">downstream control plane</text>
    </g>
   </g>
   <g id="matplotlib.axis_2">
    <g id="ytick_1">
     <g id="line2d_7">
      <path d="M 46.571428 169.246257 
L 257.82499 169.246257 
" clip-path="url(#p0c5ca1c817)" style="fill: none; stroke: #e5e7eb; stroke-width: 0.8; stroke-linecap: square"/>
     </g>
     <g id="line2d_8">
      <defs>
       <path id="ma98d4eca8a" d="M 0 0 
L -3.5 0 
" style="stroke: #000000; stroke-width: 0.8"/>
      </defs>
      <g>
       <use xlink:href="#ma98d4eca8a" x="46.571428" y="169.246257" style="stroke: #000000; stroke-width: 0.8"/>
      </g>
     </g>
     <g id="text_5">
      <text style="font-size: 9.1px; font-family: 'DejaVu Sans'; text-anchor: end" x="39.571428" y="172.703546" transform="rotate(-0 39.571428 172.703546)">100</text>
     </g>
    </g>
    <g id="ytick_2">
     <g id="line2d_9">
      <path d="M 46.571428 144.581188 
L 257.82499 144.581188 
" clip-path="url(#p0c5ca1c817)" style="fill: none; stroke: #e5e7eb; stroke-width: 0.8; stroke-linecap: square"/>
     </g>
     <g id="line2d_10">
      <g>
       <use xlink:href="#ma98d4eca8a" x="46.571428" y="144.581188" style="stroke: #000000; stroke-width: 0.8"/>
      </g>
     </g>
     <g id="text_6">
      <text style="font-size: 9.1px; font-family: 'DejaVu Sans'; text-anchor: end" x="39.571428" y="148.038478" transform="rotate(-0 39.571428 148.038478)">200</text>
     </g>
    </g>
    <g id="ytick_3">
     <g id="line2d_11">
      <path d="M 46.571428 119.91612 
L 257.82499 119.91612 
" clip-path="url(#p0c5ca1c817)" style="fill: none; stroke: #e5e7eb; stroke-width: 0.8; stroke-linecap: square"/>
     </g>
     <g id="line2d_12">
      <g>
       <use xlink:href="#ma98d4eca8a" x="46.571428" y="119.91612" style="stroke: #000000; stroke-width: 0.8"/>
      </g>
     </g>
     <g id="text_7">
      <text style="font-size: 9.1px; font-family: 'DejaVu Sans'; text-anchor: end" x="39.571428" y="123.373409" transform="rotate(-0 39.571428 123.373409)">300</text>
     </g>
    </g>
    <g id="ytick_4">
     <g id="line2d_13">
      <path d="M 46.571428 95.251051 
L 257.82499 95.251051 
" clip-path="url(#p0c5ca1c817)" style="fill: none; stroke: #e5e7eb; stroke-width: 0.8; stroke-linecap: square"/>
     </g>
     <g id="line2d_14">
      <g>
       <use xlink:href="#ma98d4eca8a" x="46.571428" y="95.251051" style="stroke: #000000; stroke-width: 0.8"/>
      </g>
     </g>
     <g id="text_8">
      <text style="font-size: 9.1px; font-family: 'DejaVu Sans'; text-anchor: end" x="39.571428" y="98.70834" transform="rotate(-0 39.571428 98.70834)">400</text>
     </g>
    </g>
    <g id="ytick_5">
     <g id="line2d_15">
      <path d="M 46.571428 70.585983 
L 257.82499 70.585983 
" clip-path="url(#p0c5ca1c817)" style="fill: none; stroke: #e5e7eb; stroke-width: 0.8; stroke-linecap: square"/>
     </g>
     <g id="line2d_16">
      <g>
       <use xlink:href="#ma98d4eca8a" x="46.571428" y="70.585983" style="stroke: #000000; stroke-width: 0.8"/>
      </g>
     </g>
     <g id="text_9">
      <text style="font-size: 9.1px; font-family: 'DejaVu Sans'; text-anchor: end" x="39.571428" y="74.043272" transform="rotate(-0 39.571428 74.043272)">500</text>
     </g>
    </g>
    <g id="text_10">
     <text style="font-size: 8.9px; font-family: 'DejaVu Sans'; text-anchor: middle" x="16.350881" y="119.042976" transform="rotate(-90 16.350881 119.042976)">first-passage time</text>
    </g>
   </g>
   <g id="line2d_17">
    <path d="M 56.173863 140.659443 
L 152.198209 122.481287 
L 248.222556 104.377127 
" clip-path="url(#p0c5ca1c817)" style="fill: none; stroke: #111827; stroke-width: 2.6; stroke-linecap: square"/>
    <defs>
     <path id="m89cf498fba" d="M 0 3 
C 0.795609 3 1.55874 2.683901 2.12132 2.12132 
C 2.683901 1.55874 3 0.795609 3 0 
C 3 -0.795609 2.683901 -1.55874 2.12132 -2.12132 
C 1.55874 -2.683901 0.795609 -3 0 -3 
C -0.795609 -3 -1.55874 -2.683901 -2.12132 -2.12132 
C -2.683901 -1.55874 -3 -0.795609 -3 0 
C -3 0.795609 -2.683901 1.55874 -2.12132 2.12132 
C -1.55874 2.683901 -0.795609 3 0 3 
z
" style="stroke: #111827"/>
    </defs>
    <g clip-path="url(#p0c5ca1c817)">
     <use xlink:href="#m89cf498fba" x="56.173863" y="140.659443" style="fill: #111827; stroke: #111827"/>
     <use xlink:href="#m89cf498fba" x="152.198209" y="122.481287" style="fill: #111827; stroke: #111827"/>
     <use xlink:href="#m89cf498fba" x="248.222556" y="104.377127" style="fill: #111827; stroke: #111827"/>
    </g>
   </g>
   <g id="line2d_18">
    <path d="M 56.173863 128.474899 
L 152.198209 112.935905 
L 248.222556 100.726697 
" clip-path="url(#p0c5ca1c817)" style="fill: none; stroke: #2563eb; stroke-width: 1.85; stroke-linecap: square"/>
    <defs>
     <path id="mc05fb12f34" d="M 0 3 
C 0.795609 3 1.55874 2.683901 2.12132 2.12132 
C 2.683901 1.55874 3 0.795609 3 0 
C 3 -0.795609 2.683901 -1.55874 2.12132 -2.12132 
C 1.55874 -2.683901 0.795609 -3 0 -3 
C -0.795609 -3 -1.55874 -2.683901 -2.12132 -2.12132 
C -2.683901 -1.55874 -3 -0.795609 -3 0 
C -3 0.795609 -2.683901 1.55874 -2.12132 2.12132 
C -1.55874 2.683901 -0.795609 3 0 3 
z
" style="stroke: #2563eb"/>
    </defs>
    <g clip-path="url(#p0c5ca1c817)">
     <use xlink:href="#mc05fb12f34" x="56.173863" y="128.474899" style="fill: #2563eb; stroke: #2563eb"/>
     <use xlink:href="#mc05fb12f34" x="152.198209" y="112.935905" style="fill: #2563eb; stroke: #2563eb"/>
     <use xlink:href="#mc05fb12f34" x="248.222556" y="100.726697" style="fill: #2563eb; stroke: #2563eb"/>
    </g>
   </g>
   <g id="line2d_19">
    <path d="M 56.173863 126.945664 
L 152.198209 113.626527 
L 248.222556 99.246792 
" clip-path="url(#p0c5ca1c817)" style="fill: none; stroke: #1f4e79; stroke-width: 1.85; stroke-linecap: square"/>
    <defs>
     <path id="m0bb2f912ad" d="M 0 3 
C 0.795609 3 1.55874 2.683901 2.12132 2.12132 
C 2.683901 1.55874 3 0.795609 3 0 
C 3 -0.795609 2.683901 -1.55874 2.12132 -2.12132 
C 1.55874 -2.683901 0.795609 -3 0 -3 
C -0.795609 -3 -1.55874 -2.683901 -2.12132 -2.12132 
C -2.683901 -1.55874 -3 -0.795609 -3 0 
C -3 0.795609 -2.683901 1.55874 -2.12132 2.12132 
C -1.55874 2.683901 -0.795609 3 0 3 
z
" style="stroke: #1f4e79"/>
    </defs>
    <g clip-path="url(#p0c5ca1c817)">
     <use xlink:href="#m0bb2f912ad" x="56.173863" y="126.945664" style="fill: #1f4e79; stroke: #1f4e79"/>
     <use xlink:href="#m0bb2f912ad" x="152.198209" y="113.626527" style="fill: #1f4e79; stroke: #1f4e79"/>
     <use xlink:href="#m0bb2f912ad" x="248.222556" y="99.246792" style="fill: #1f4e79; stroke: #1f4e79"/>
    </g>
   </g>
   <g id="line2d_20">
    <path d="M 56.173863 124.528488 
L 152.198209 107.534255 
L 248.222556 97.446242 
" clip-path="url(#p0c5ca1c817)" style="fill: none; stroke: #2f855a; stroke-width: 1.85; stroke-linecap: square"/>
    <defs>
     <path id="mde73d5ae74" d="M 0 3 
C 0.795609 3 1.55874 2.683901 2.12132 2.12132 
C 2.683901 1.55874 3 0.795609 3 0 
C 3 -0.795609 2.683901 -1.55874 2.12132 -2.12132 
C 1.55874 -2.683901 0.795609 -3 0 -3 
C -0.795609 -3 -1.55874 -2.683901 -2.12132 -2.12132 
C -2.683901 -1.55874 -3 -0.795609 -3 0 
C -3 0.795609 -2.683901 1.55874 -2.12132 2.12132 
C -1.55874 2.683901 -0.795609 3 0 3 
z
" style="stroke: #2f855a"/>
    </defs>
    <g clip-path="url(#p0c5ca1c817)">
     <use xlink:href="#mde73d5ae74" x="56.173863" y="124.528488" style="fill: #2f855a; stroke: #2f855a"/>
     <use xlink:href="#mde73d5ae74" x="152.198209" y="107.534255" style="fill: #2f855a; stroke: #2f855a"/>
     <use xlink:href="#mde73d5ae74" x="248.222556" y="97.446242" style="fill: #2f855a; stroke: #2f855a"/>
    </g>
   </g>
   <g id="patch_3">
    <path d="M 46.571428 174.364259 
L 46.571428 63.721694 
" style="fill: none; stroke: #000000; stroke-width: 0.8; stroke-linejoin: miter; stroke-linecap: square"/>
   </g>
   <g id="patch_4">
    <path d="M 46.571428 174.364259 
L 257.82499 174.364259 
" style="fill: none; stroke: #000000; stroke-width: 0.8; stroke-linejoin: miter; stroke-linecap: square"/>
   </g>
   <g id="text_11">
    <text style="font-weight: 700; font-size: 8.2px; font-family: 'DejaVu Sans'; text-anchor: start; fill: #2563eb" x="52.909035" y="167.725705" transform="rotate(-0 52.909035 167.725705)">arrival memory transfers</text>
   </g>
   <g id="text_12">
    <text style="font-weight: 700; font-size: 10.2px; font-family: 'DejaVu Sans'; text-anchor: start; fill: #102a43" x="46.571428" y="57.17471" transform="rotate(-0 46.571428 57.17471)">a</text>
   </g>
   <g id="text_13">
    <text style="font-size: 9px; font-family: 'DejaVu Sans'; text-anchor: start; fill: #102a43" x="56.077838" y="57.424273" transform="rotate(-0 56.077838 57.424273)">arrival preserved</text>
   </g>
   <g id="legend_1">
    <g id="line2d_21">
     <path d="M 53.771428 74.200444 
L 61.771428 74.200444 
L 69.771428 74.200444 
" style="fill: none; stroke: #111827; stroke-width: 2.6; stroke-linecap: square"/>
     <g>
      <use xlink:href="#m89cf498fba" x="61.771428" y="74.200444" style="fill: #111827; stroke: #111827"/>
     </g>
    </g>
    <g id="text_14">
     <text style="font-size: 8px; font-family: 'DejaVu Sans'; text-anchor: start" x="76.171428" y="77.000444" transform="rotate(-0 76.171428 77.000444)">reference</text>
    </g>
    <g id="line2d_22">
     <path d="M 53.771428 85.942944 
L 61.771428 85.942944 
L 69.771428 85.942944 
" style="fill: none; stroke: #2563eb; stroke-width: 1.85; stroke-linecap: square"/>
     <g>
      <use xlink:href="#mc05fb12f34" x="61.771428" y="85.942944" style="fill: #2563eb; stroke: #2563eb"/>
     </g>
    </g>
    <g id="text_15">
     <text style="font-size: 8px; font-family: 'DejaVu Sans'; text-anchor: start" x="76.171428" y="88.742944" transform="rotate(-0 76.171428 88.742944)">mixture</text>
    </g>
    <g id="line2d_23">
     <path d="M 53.771428 97.685444 
L 61.771428 97.685444 
L 69.771428 97.685444 
" style="fill: none; stroke: #1f4e79; stroke-width: 1.85; stroke-linecap: square"/>
     <g>
      <use xlink:href="#m0bb2f912ad" x="61.771428" y="97.685444" style="fill: #1f4e79; stroke: #1f4e79"/>
     </g>
    </g>
    <g id="text_16">
     <text style="font-size: 8px; font-family: 'DejaVu Sans'; text-anchor: start" x="76.171428" y="100.485444" transform="rotate(-0 76.171428 100.485444)">velocity</text>
    </g>
    <g id="line2d_24">
     <path d="M 53.771428 109.427944 
L 61.771428 109.427944 
L 69.771428 109.427944 
" style="fill: none; stroke: #2f855a; stroke-width: 1.85; stroke-linecap: square"/>
     <g>
      <use xlink:href="#mde73d5ae74" x="61.771428" y="109.427944" style="fill: #2f855a; stroke: #2f855a"/>
     </g>
    </g>
    <g id="text_17">
     <text style="font-size: 8px; font-family: 'DejaVu Sans'; text-anchor: start" x="76.171428" y="112.227944" transform="rotate(-0 76.171428 112.227944)">learned</text>
    </g>
   </g>
  </g>
  <g id="axes_2">
   <g id="patch_5">
    <path d="M 326.171731 174.364259 
L 529.14084 174.364259 
L 529.14084 63.721694 
L 326.171731 63.721694 
z
" style="fill: #ffffff"/>
   </g>
   <g id="FillBetweenPolyCollection_5">
    <defs>
     <path id="m82b3ab8bb9" d="M 335.3976 -234.198547 
L 335.3976 -183.903505 
L 396.90339 -217.993406 
L 458.409181 -230.380151 
L 519.914971 -247.985399 
L 519.914971 -273.971769 
L 519.914971 -273.971769 
L 458.409181 -273.126997 
L 396.90339 -251.207502 
L 335.3976 -234.198547 
z
"/>
    </defs>
    <g clip-path="url(#p8074f14d22)">
     <use xlink:href="#m82b3ab8bb9" x="0" y="342.72267" style="fill: #94a3b8; fill-opacity: 0.24"/>
    </g>
   </g>
   <g id="matplotlib.axis_3">
    <g id="xtick_4">
     <g id="line2d_25">
      <path d="M 335.3976 174.364259 
L 335.3976 63.721694 
" clip-path="url(#p8074f14d22)" style="fill: none; stroke: #e5e7eb; stroke-width: 0.8; stroke-linecap: square"/>
     </g>
     <g id="line2d_26">
      <g>
       <use xlink:href="#m8e97dc3f98" x="335.3976" y="174.364259" style="stroke: #000000; stroke-width: 0.8"/>
      </g>
     </g>
     <g id="text_18">
      <text style="font-size: 9.1px; font-family: 'DejaVu Sans'; text-anchor: middle" x="335.3976" y="188.278837" transform="rotate(-0 335.3976 188.278837)">100</text>
     </g>
    </g>
    <g id="xtick_5">
     <g id="line2d_27">
      <path d="M 366.150495 174.364259 
L 366.150495 63.721694 
" clip-path="url(#p8074f14d22)" style="fill: none; stroke: #e5e7eb; stroke-width: 0.8; stroke-linecap: square"/>
     </g>
     <g id="line2d_28">
      <g>
       <use xlink:href="#m8e97dc3f98" x="366.150495" y="174.364259" style="stroke: #000000; stroke-width: 0.8"/>
      </g>
     </g>
     <g id="text_19">
      <text style="font-size: 9.1px; font-family: 'DejaVu Sans'; text-anchor: middle" x="366.150495" y="188.278837" transform="rotate(-0 366.150495 188.278837)">150</text>
     </g>
    </g>
    <g id="xtick_6">
     <g id="line2d_29">
      <path d="M 396.90339 174.364259 
L 396.90339 63.721694 
" clip-path="url(#p8074f14d22)" style="fill: none; stroke: #e5e7eb; stroke-width: 0.8; stroke-linecap: square"/>
     </g>
     <g id="line2d_30">
      <g>
       <use xlink:href="#m8e97dc3f98" x="396.90339" y="174.364259" style="stroke: #000000; stroke-width: 0.8"/>
      </g>
     </g>
     <g id="text_20">
      <text style="font-size: 9.1px; font-family: 'DejaVu Sans'; text-anchor: middle" x="396.90339" y="188.278837" transform="rotate(-0 396.90339 188.278837)">200</text>
     </g>
    </g>
    <g id="xtick_7">
     <g id="line2d_31">
      <path d="M 427.656285 174.364259 
L 427.656285 63.721694 
" clip-path="url(#p8074f14d22)" style="fill: none; stroke: #e5e7eb; stroke-width: 0.8; stroke-linecap: square"/>
     </g>
     <g id="line2d_32">
      <g>
       <use xlink:href="#m8e97dc3f98" x="427.656285" y="174.364259" style="stroke: #000000; stroke-width: 0.8"/>
      </g>
     </g>
     <g id="text_21">
      <text style="font-size: 9.1px; font-family: 'DejaVu Sans'; text-anchor: middle" x="427.656285" y="188.278837" transform="rotate(-0 427.656285 188.278837)">250</text>
     </g>
    </g>
    <g id="xtick_8">
     <g id="line2d_33">
      <path d="M 458.409181 174.364259 
L 458.409181 63.721694 
" clip-path="url(#p8074f14d22)" style="fill: none; stroke: #e5e7eb; stroke-width: 0.8; stroke-linecap: square"/>
     </g>
     <g id="line2d_34">
      <g>
       <use xlink:href="#m8e97dc3f98" x="458.409181" y="174.364259" style="stroke: #000000; stroke-width: 0.8"/>
      </g>
     </g>
     <g id="text_22">
      <text style="font-size: 9.1px; font-family: 'DejaVu Sans'; text-anchor: middle" x="458.409181" y="188.278837" transform="rotate(-0 458.409181 188.278837)">300</text>
     </g>
    </g>
    <g id="xtick_9">
     <g id="line2d_35">
      <path d="M 489.162076 174.364259 
L 489.162076 63.721694 
" clip-path="url(#p8074f14d22)" style="fill: none; stroke: #e5e7eb; stroke-width: 0.8; stroke-linecap: square"/>
     </g>
     <g id="line2d_36">
      <g>
       <use xlink:href="#m8e97dc3f98" x="489.162076" y="174.364259" style="stroke: #000000; stroke-width: 0.8"/>
      </g>
     </g>
     <g id="text_23">
      <text style="font-size: 9.1px; font-family: 'DejaVu Sans'; text-anchor: middle" x="489.162076" y="188.278837" transform="rotate(-0 489.162076 188.278837)">350</text>
     </g>
    </g>
    <g id="xtick_10">
     <g id="line2d_37">
      <path d="M 519.914971 174.364259 
L 519.914971 63.721694 
" clip-path="url(#p8074f14d22)" style="fill: none; stroke: #e5e7eb; stroke-width: 0.8; stroke-linecap: square"/>
     </g>
     <g id="line2d_38">
      <g>
       <use xlink:href="#m8e97dc3f98" x="519.914971" y="174.364259" style="stroke: #000000; stroke-width: 0.8"/>
      </g>
     </g>
     <g id="text_24">
      <text style="font-size: 9.1px; font-family: 'DejaVu Sans'; text-anchor: middle" x="519.914971" y="188.278837" transform="rotate(-0 519.914971 188.278837)">400</text>
     </g>
    </g>
    <g id="text_25">
     <text style="font-size: 8.9px; font-family: 'DejaVu Sans'; text-anchor: middle" x="427.656285" y="200.933962" transform="rotate(-0 427.656285 200.933962)">time step</text>
    </g>
   </g>
   <g id="matplotlib.axis_4">
    <g id="ytick_6">
     <g id="line2d_39">
      <path d="M 326.171731 167.077068 
L 529.14084 167.077068 
" clip-path="url(#p8074f14d22)" style="fill: none; stroke: #e5e7eb; stroke-width: 0.8; stroke-linecap: square"/>
     </g>
     <g id="line2d_40">
      <g>
       <use xlink:href="#ma98d4eca8a" x="326.171731" y="167.077068" style="stroke: #000000; stroke-width: 0.8"/>
      </g>
     </g>
     <g id="text_26">
      <text style="font-size: 9.1px; font-family: 'DejaVu Sans'; text-anchor: end" x="319.171731" y="170.534357" transform="rotate(-0 319.171731 170.534357)">1700</text>
     </g>
    </g>
    <g id="ytick_7">
     <g id="line2d_41">
      <path d="M 326.171731 147.293582 
L 529.14084 147.293582 
" clip-path="url(#p8074f14d22)" style="fill: none; stroke: #e5e7eb; stroke-width: 0.8; stroke-linecap: square"/>
     </g>
     <g id="line2d_42">
      <g>
       <use xlink:href="#ma98d4eca8a" x="326.171731" y="147.293582" style="stroke: #000000; stroke-width: 0.8"/>
      </g>
     </g>
     <g id="text_27">
      <text style="font-size: 9.1px; font-family: 'DejaVu Sans'; text-anchor: end" x="319.171731" y="150.750871" transform="rotate(-0 319.171731 150.750871)">1800</text>
     </g>
    </g>
    <g id="ytick_8">
     <g id="line2d_43">
      <path d="M 326.171731 127.510097 
L 529.14084 127.510097 
" clip-path="url(#p8074f14d22)" style="fill: none; stroke: #e5e7eb; stroke-width: 0.8; stroke-linecap: square"/>
     </g>
     <g id="line2d_44">
      <g>
       <use xlink:href="#ma98d4eca8a" x="326.171731" y="127.510097" style="stroke: #000000; stroke-width: 0.8"/>
      </g>
     </g>
     <g id="text_28">
      <text style="font-size: 9.1px; font-family: 'DejaVu Sans'; text-anchor: end" x="319.171731" y="130.967386" transform="rotate(-0 319.171731 130.967386)">1900</text>
     </g>
    </g>
    <g id="ytick_9">
     <g id="line2d_45">
      <path d="M 326.171731 107.726611 
L 529.14084 107.726611 
" clip-path="url(#p8074f14d22)" style="fill: none; stroke: #e5e7eb; stroke-width: 0.8; stroke-linecap: square"/>
     </g>
     <g id="line2d_46">
      <g>
       <use xlink:href="#ma98d4eca8a" x="326.171731" y="107.726611" style="stroke: #000000; stroke-width: 0.8"/>
      </g>
     </g>
     <g id="text_29">
      <text style="font-size: 9.1px; font-family: 'DejaVu Sans'; text-anchor: end" x="319.171731" y="111.1839" transform="rotate(-0 319.171731 111.1839)">2000</text>
     </g>
    </g>
    <g id="ytick_10">
     <g id="line2d_47">
      <path d="M 326.171731 87.943125 
L 529.14084 87.943125 
" clip-path="url(#p8074f14d22)" style="fill: none; stroke: #e5e7eb; stroke-width: 0.8; stroke-linecap: square"/>
     </g>
     <g id="line2d_48">
      <g>
       <use xlink:href="#ma98d4eca8a" x="326.171731" y="87.943125" style="stroke: #000000; stroke-width: 0.8"/>
      </g>
     </g>
     <g id="text_30">
      <text style="font-size: 9.1px; font-family: 'DejaVu Sans'; text-anchor: end" x="319.171731" y="91.400415" transform="rotate(-0 319.171731 91.400415)">2100</text>
     </g>
    </g>
    <g id="ytick_11">
     <g id="line2d_49">
      <path d="M 326.171731 68.15964 
L 529.14084 68.15964 
" clip-path="url(#p8074f14d22)" style="fill: none; stroke: #e5e7eb; stroke-width: 0.8; stroke-linecap: square"/>
     </g>
     <g id="line2d_50">
      <g>
       <use xlink:href="#ma98d4eca8a" x="326.171731" y="68.15964" style="stroke: #000000; stroke-width: 0.8"/>
      </g>
     </g>
     <g id="text_31">
      <text style="font-size: 9.1px; font-family: 'DejaVu Sans'; text-anchor: end" x="319.171731" y="71.616929" transform="rotate(-0 319.171731 71.616929)">2200</text>
     </g>
    </g>
    <g id="text_32">
     <text style="font-size: 8.9px; font-family: 'DejaVu Sans'; text-anchor: middle" x="290.161309" y="119.042976" transform="rotate(-90 290.161309 119.042976)">dilution index</text>
    </g>
   </g>
   <g id="line2d_51">
    <path d="M 335.3976 108.524124 
L 396.90339 91.515168 
L 458.409181 69.595673 
L 519.914971 68.750902 
" clip-path="url(#p8074f14d22)" style="fill: none; stroke: #111827; stroke-width: 2.6; stroke-linecap: square"/>
    <defs>
     <path id="maf34a54b3b" d="M 0 1.8 
C 0.477366 1.8 0.935244 1.610341 1.272792 1.272792 
C 1.610341 0.935244 1.8 0.477366 1.8 0 
C 1.8 -0.477366 1.610341 -0.935244 1.272792 -1.272792 
C 0.935244 -1.610341 0.477366 -1.8 0 -1.8 
C -0.477366 -1.8 -0.935244 -1.610341 -1.272792 -1.272792 
C -1.610341 -0.935244 -1.8 -0.477366 -1.8 0 
C -1.8 0.477366 -1.610341 0.935244 -1.272792 1.272792 
C -0.935244 1.610341 -0.477366 1.8 0 1.8 
z
" style="stroke: #111827"/>
    </defs>
    <g clip-path="url(#p8074f14d22)">
     <use xlink:href="#maf34a54b3b" x="335.3976" y="108.524124" style="fill: #111827; stroke: #111827"/>
     <use xlink:href="#maf34a54b3b" x="396.90339" y="91.515168" style="fill: #111827; stroke: #111827"/>
     <use xlink:href="#maf34a54b3b" x="458.409181" y="69.595673" style="fill: #111827; stroke: #111827"/>
     <use xlink:href="#maf34a54b3b" x="519.914971" y="68.750902" style="fill: #111827; stroke: #111827"/>
    </g>
   </g>
   <g id="line2d_52">
    <path d="M 335.3976 158.819165 
L 396.90339 124.729264 
L 458.409181 112.342519 
L 519.914971 94.737271 
" clip-path="url(#p8074f14d22)" style="fill: none; stroke: #2563eb; stroke-width: 1.75; stroke-linecap: square"/>
    <defs>
     <path id="m88e191cf30" d="M 0 1.8 
C 0.477366 1.8 0.935244 1.610341 1.272792 1.272792 
C 1.610341 0.935244 1.8 0.477366 1.8 0 
C 1.8 -0.477366 1.610341 -0.935244 1.272792 -1.272792 
C 0.935244 -1.610341 0.477366 -1.8 0 -1.8 
C -0.477366 -1.8 -0.935244 -1.610341 -1.272792 -1.272792 
C -1.610341 -0.935244 -1.8 -0.477366 -1.8 0 
C -1.8 0.477366 -1.610341 0.935244 -1.272792 1.272792 
C -0.935244 1.610341 -0.477366 1.8 0 1.8 
z
" style="stroke: #2563eb"/>
    </defs>
    <g clip-path="url(#p8074f14d22)">
     <use xlink:href="#m88e191cf30" x="335.3976" y="158.819165" style="fill: #2563eb; stroke: #2563eb"/>
     <use xlink:href="#m88e191cf30" x="396.90339" y="124.729264" style="fill: #2563eb; stroke: #2563eb"/>
     <use xlink:href="#m88e191cf30" x="458.409181" y="112.342519" style="fill: #2563eb; stroke: #2563eb"/>
     <use xlink:href="#m88e191cf30" x="519.914971" y="94.737271" style="fill: #2563eb; stroke: #2563eb"/>
    </g>
   </g>
   <g id="line2d_53">
    <path d="M 335.3976 169.335051 
L 396.90339 133.341865 
L 458.409181 118.174188 
L 519.914971 99.643121 
" clip-path="url(#p8074f14d22)" style="fill: none; stroke: #1f4e79; stroke-width: 1.75; stroke-linecap: square"/>
    <defs>
     <path id="mac5aa36b51" d="M 0 1.8 
C 0.477366 1.8 0.935244 1.610341 1.272792 1.272792 
C 1.610341 0.935244 1.8 0.477366 1.8 0 
C 1.8 -0.477366 1.610341 -0.935244 1.272792 -1.272792 
C 0.935244 -1.610341 0.477366 -1.8 0 -1.8 
C -0.477366 -1.8 -0.935244 -1.610341 -1.272792 -1.272792 
C -1.610341 -0.935244 -1.8 -0.477366 -1.8 0 
C -1.8 0.477366 -1.610341 0.935244 -1.272792 1.272792 
C -0.935244 1.610341 -0.477366 1.8 0 1.8 
z
" style="stroke: #1f4e79"/>
    </defs>
    <g clip-path="url(#p8074f14d22)">
     <use xlink:href="#mac5aa36b51" x="335.3976" y="169.335051" style="fill: #1f4e79; stroke: #1f4e79"/>
     <use xlink:href="#mac5aa36b51" x="396.90339" y="133.341865" style="fill: #1f4e79; stroke: #1f4e79"/>
     <use xlink:href="#mac5aa36b51" x="458.409181" y="118.174188" style="fill: #1f4e79; stroke: #1f4e79"/>
     <use xlink:href="#mac5aa36b51" x="519.914971" y="99.643121" style="fill: #1f4e79; stroke: #1f4e79"/>
    </g>
   </g>
   <g id="line2d_54">
    <path d="M 335.3976 164.734093 
L 396.90339 126.847134 
L 458.409181 109.585546 
L 519.914971 99.984712 
" clip-path="url(#p8074f14d22)" style="fill: none; stroke: #2f855a; stroke-width: 1.75; stroke-linecap: square"/>
    <defs>
     <path id="m9beb988197" d="M 0 1.8 
C 0.477366 1.8 0.935244 1.610341 1.272792 1.272792 
C 1.610341 0.935244 1.8 0.477366 1.8 0 
C 1.8 -0.477366 1.610341 -0.935244 1.272792 -1.272792 
C 0.935244 -1.610341 0.477366 -1.8 0 -1.8 
C -0.477366 -1.8 -0.935244 -1.610341 -1.272792 -1.272792 
C -1.610341 -0.935244 -1.8 -0.477366 -1.8 0 
C -1.8 0.477366 -1.610341 0.935244 -1.272792 1.272792 
C -0.935244 1.610341 -0.477366 1.8 0 1.8 
z
" style="stroke: #2f855a"/>
    </defs>
    <g clip-path="url(#p8074f14d22)">
     <use xlink:href="#m9beb988197" x="335.3976" y="164.734093" style="fill: #2f855a; stroke: #2f855a"/>
     <use xlink:href="#m9beb988197" x="396.90339" y="126.847134" style="fill: #2f855a; stroke: #2f855a"/>
     <use xlink:href="#m9beb988197" x="458.409181" y="109.585546" style="fill: #2f855a; stroke: #2f855a"/>
     <use xlink:href="#m9beb988197" x="519.914971" y="99.984712" style="fill: #2f855a; stroke: #2f855a"/>
    </g>
   </g>
   <g id="line2d_55">
    <path d="M 335.3976 159.798278 
L 396.90339 126.354968 
L 458.409181 115.366015 
L 519.914971 90.530067 
" clip-path="url(#p8074f14d22)" style="fill: none; stroke: #d97706; stroke-width: 1.75; stroke-linecap: square"/>
    <defs>
     <path id="m301131e9ac" d="M 0 1.8 
C 0.477366 1.8 0.935244 1.610341 1.272792 1.272792 
C 1.610341 0.935244 1.8 0.477366 1.8 0 
C 1.8 -0.477366 1.610341 -0.935244 1.272792 -1.272792 
C 0.935244 -1.610341 0.477366 -1.8 0 -1.8 
C -0.477366 -1.8 -0.935244 -1.610341 -1.272792 -1.272792 
C -1.610341 -0.935244 -1.8 -0.477366 -1.8 0 
C -1.8 0.477366 -1.610341 0.935244 -1.272792 1.272792 
C -0.935244 1.610341 -0.477366 1.8 0 1.8 
z
" style="stroke: #d97706"/>
    </defs>
    <g clip-path="url(#p8074f14d22)">
     <use xlink:href="#m301131e9ac" x="335.3976" y="159.798278" style="fill: #d97706; stroke: #d97706"/>
     <use xlink:href="#m301131e9ac" x="396.90339" y="126.354968" style="fill: #d97706; stroke: #d97706"/>
     <use xlink:href="#m301131e9ac" x="458.409181" y="115.366015" style="fill: #d97706; stroke: #d97706"/>
     <use xlink:href="#m301131e9ac" x="519.914971" y="90.530067" style="fill: #d97706; stroke: #d97706"/>
    </g>
   </g>
   <g id="line2d_56">
    <path d="M 335.3976 169.160116 
L 396.90339 136.956712 
L 458.409181 127.813791 
L 519.914971 116.353054 
" clip-path="url(#p8074f14d22)" style="fill: none; stroke: #b83280; stroke-width: 1.75; stroke-linecap: square"/>
    <defs>
     <path id="m065f4cfa8c" d="M 0 1.8 
C 0.477366 1.8 0.935244 1.610341 1.272792 1.272792 
C 1.610341 0.935244 1.8 0.477366 1.8 0 
C 1.8 -0.477366 1.610341 -0.935244 1.272792 -1.272792 
C 0.935244 -1.610341 0.477366 -1.8 0 -1.8 
C -0.477366 -1.8 -0.935244 -1.610341 -1.272792 -1.272792 
C -1.610341 -0.935244 -1.8 -0.477366 -1.8 0 
C -1.8 0.477366 -1.610341 0.935244 -1.272792 1.272792 
C -0.935244 1.610341 -0.477366 1.8 0 1.8 
z
" style="stroke: #b83280"/>
    </defs>
    <g clip-path="url(#p8074f14d22)">
     <use xlink:href="#m065f4cfa8c" x="335.3976" y="169.160116" style="fill: #b83280; stroke: #b83280"/>
     <use xlink:href="#m065f4cfa8c" x="396.90339" y="136.956712" style="fill: #b83280; stroke: #b83280"/>
     <use xlink:href="#m065f4cfa8c" x="458.409181" y="127.813791" style="fill: #b83280; stroke: #b83280"/>
     <use xlink:href="#m065f4cfa8c" x="519.914971" y="116.353054" style="fill: #b83280; stroke: #b83280"/>
    </g>
   </g>
   <g id="patch_6">
    <path d="M 326.171731 174.364259 
L 326.171731 63.721694 
" style="fill: none; stroke: #000000; stroke-width: 0.8; stroke-linejoin: miter; stroke-linecap: square"/>
   </g>
   <g id="patch_7">
    <path d="M 326.171731 174.364259 
L 529.14084 174.364259 
" style="fill: none; stroke: #000000; stroke-width: 0.8; stroke-linejoin: miter; stroke-linecap: square"/>
   </g>
   <g id="patch_8">
    <path d="M 448.16579 96.026683 
Q 452.390939 93.940552 455.463216 92.423642 
" style="fill: none; stroke: #64748b; stroke-width: 1.15; stroke-linecap: round"/>
    <path d="M 451.79611 92.405235 
L 455.463216 92.423642 
L 453.248227 95.346282 
z
" style="fill: #64748b; stroke: #64748b; stroke-width: 1.15; stroke-linecap: round"/>
   </g>
   <g id="text_33">
    <text style="font-size: 8.2px; font-family: 'DejaVu Sans'; text-anchor: start; fill: #334155" x="396.90339" y="99.176081" transform="rotate(-0 396.90339 99.176081)">spatial organization gap</text>
   </g>
   <g id="text_34">
    <text style="font-weight: 700; font-size: 10.2px; font-family: 'DejaVu Sans'; text-anchor: start; fill: #102a43" x="326.171731" y="57.17471" transform="rotate(-0 326.171731 57.17471)">b</text>
   </g>
   <g id="text_35">
    <text style="font-size: 9px; font-family: 'DejaVu Sans'; text-anchor: start; fill: #102a43" x="335.305341" y="57.424273" transform="rotate(-0 335.305341 57.424273)">dilution forgotten</text>
   </g>
   <g id="legend_2">
    <g id="line2d_57">
     <path d="M 405.48084 139.215509 
L 412.68084 139.215509 
L 419.88084 139.215509 
" style="fill: none; stroke: #111827; stroke-width: 2.6; stroke-linecap: square"/>
     <g>
      <use xlink:href="#maf34a54b3b" x="412.68084" y="139.215509" style="fill: #111827; stroke: #111827"/>
     </g>
    </g>
    <g id="text_36">
     <text style="font-size: 8px; font-family: 'DejaVu Sans'; text-anchor: start" x="426.28084" y="142.015509" transform="rotate(-0 426.28084 142.015509)">reference</text>
    </g>
    <g id="line2d_58">
     <path d="M 405.48084 150.958009 
L 412.68084 150.958009 
L 419.88084 150.958009 
" style="fill: none; stroke: #2563eb; stroke-width: 1.75; stroke-linecap: square"/>
     <g>
      <use xlink:href="#m88e191cf30" x="412.68084" y="150.958009" style="fill: #2563eb; stroke: #2563eb"/>
     </g>
    </g>
    <g id="text_37">
     <text style="font-size: 8px; font-family: 'DejaVu Sans'; text-anchor: start" x="426.28084" y="153.758009" transform="rotate(-0 426.28084 153.758009)">mixture</text>
    </g>
    <g id="line2d_59">
     <path d="M 405.48084 162.700509 
L 412.68084 162.700509 
L 419.88084 162.700509 
" style="fill: none; stroke: #1f4e79; stroke-width: 1.75; stroke-linecap: square"/>
     <g>
      <use xlink:href="#mac5aa36b51" x="412.68084" y="162.700509" style="fill: #1f4e79; stroke: #1f4e79"/>
     </g>
    </g>
    <g id="text_38">
     <text style="font-size: 8px; font-family: 'DejaVu Sans'; text-anchor: start" x="426.28084" y="165.500509" transform="rotate(-0 426.28084 165.500509)">velocity</text>
    </g>
    <g id="line2d_60">
     <path d="M 470.87334 139.215509 
L 478.07334 139.215509 
L 485.27334 139.215509 
" style="fill: none; stroke: #2f855a; stroke-width: 1.75; stroke-linecap: square"/>
     <g>
      <use xlink:href="#m9beb988197" x="478.07334" y="139.215509" style="fill: #2f855a; stroke: #2f855a"/>
     </g>
    </g>
    <g id="text_39">
     <text style="font-size: 8px; font-family: 'DejaVu Sans'; text-anchor: start" x="491.67334" y="142.015509" transform="rotate(-0 491.67334 142.015509)">learned</text>
    </g>
    <g id="line2d_61">
     <path d="M 470.87334 150.958009 
L 478.07334 150.958009 
L 485.27334 150.958009 
" style="fill: none; stroke: #d97706; stroke-width: 1.75; stroke-linecap: square"/>
     <g>
      <use xlink:href="#m301131e9ac" x="478.07334" y="150.958009" style="fill: #d97706; stroke: #d97706"/>
     </g>
    </g>
    <g id="text_40">
     <text style="font-size: 8px; font-family: 'DejaVu Sans'; text-anchor: start" x="491.67334" y="153.758009" transform="rotate(-0 491.67334 153.758009)">archive</text>
    </g>
    <g id="line2d_62">
     <path d="M 470.87334 162.700509 
L 478.07334 162.700509 
L 485.27334 162.700509 
" style="fill: none; stroke: #b83280; stroke-width: 1.75; stroke-linecap: square"/>
     <g>
      <use xlink:href="#m065f4cfa8c" x="478.07334" y="162.700509" style="fill: #b83280; stroke: #b83280"/>
     </g>
    </g>
    <g id="text_41">
     <text style="font-size: 8px; font-family: 'DejaVu Sans'; text-anchor: start" x="491.67334" y="165.500509" transform="rotate(-0 491.67334 165.500509)">pairs</text>
    </g>
   </g>
  </g>
  <g id="axes_3">
   <g id="patch_9">
    <path d="M 46.571428 324.395576 
L 529.14084 324.395576 
L 529.14084 224.817268 
L 46.571428 224.817268 
z
" style="fill: #ffffff"/>
   </g>
   <g id="patch_10">
    <path d="M 68.506401 469.702979 
L 139.580616 469.702979 
L 139.580616 298.753094 
L 68.506401 298.753094 
z
" clip-path="url(#p42e5be3b51)" style="fill: #2563eb; opacity: 0.9"/>
   </g>
   <g id="patch_11">
    <path d="M 191.048151 469.702979 
L 262.122366 469.702979 
L 262.122366 291.850312 
L 191.048151 291.850312 
z
" clip-path="url(#p42e5be3b51)" style="fill: #2f855a; opacity: 0.9"/>
   </g>
   <g id="patch_12">
    <path d="M 313.589902 469.702979 
L 384.664117 469.702979 
L 384.664117 268.644416 
L 313.589902 268.644416 
z
" clip-path="url(#p42e5be3b51)" style="fill: #d97706; opacity: 0.9"/>
   </g>
   <g id="patch_13">
    <path d="M 436.131652 469.702979 
L 507.205867 469.702979 
L 507.205867 245.331255 
L 436.131652 245.331255 
z
" clip-path="url(#p42e5be3b51)" style="fill: #b83280; opacity: 0.9"/>
   </g>
   <g id="matplotlib.axis_5">
    <g id="xtick_11">
     <g id="line2d_63">
      <g>
       <use xlink:href="#m8e97dc3f98" x="104.043509" y="324.395576" style="stroke: #000000; stroke-width: 0.8"/>
      </g>
     </g>
     <g id="text_42">
      <text style="font-size: 9.1px; font-family: 'DejaVu Sans'; text-anchor: middle" x="104.043509" y="338.310155" transform="rotate(-0 104.043509 338.310155)">BTC</text>
     </g>
    </g>
    <g id="xtick_12">
     <g id="line2d_64">
      <g>
       <use xlink:href="#m8e97dc3f98" x="226.585259" y="324.395576" style="stroke: #000000; stroke-width: 0.8"/>
      </g>
     </g>
     <g id="text_43">
      <text style="font-size: 9.1px; font-family: 'DejaVu Sans'; text-anchor: middle" x="226.585259" y="338.310155" transform="rotate(-0 226.585259 338.310155)">dilution</text>
     </g>
    </g>
    <g id="xtick_13">
     <g id="line2d_65">
      <g>
       <use xlink:href="#m8e97dc3f98" x="349.127009" y="324.395576" style="stroke: #000000; stroke-width: 0.8"/>
      </g>
     </g>
     <g id="text_44">
      <text style="font-size: 9.1px; font-family: 'DejaVu Sans'; text-anchor: middle" x="349.127009" y="338.310155" transform="rotate(-0 349.127009 338.310155)">pairs</text>
     </g>
    </g>
    <g id="xtick_14">
     <g id="line2d_66">
      <g>
       <use xlink:href="#m8e97dc3f98" x="471.668759" y="324.395576" style="stroke: #000000; stroke-width: 0.8"/>
      </g>
     </g>
     <g id="text_45">
      <text style="font-size: 9.1px; font-family: 'DejaVu Sans'; text-anchor: middle" x="471.668759" y="338.310155" transform="rotate(-0 471.668759 338.310155)">encounters</text>
     </g>
    </g>
   </g>
   <g id="matplotlib.axis_6">
    <g id="ytick_12">
     <g id="line2d_67">
      <path d="M 46.571428 298.753094 
L 529.14084 298.753094 
" clip-path="url(#p42e5be3b51)" style="fill: none; stroke: #e5e7eb; stroke-width: 0.8; stroke-linecap: square"/>
     </g>
     <g id="line2d_68">
      <g>
       <use xlink:href="#ma98d4eca8a" x="46.571428" y="298.753094" style="stroke: #000000; stroke-width: 0.8"/>
      </g>
     </g>
     <g id="text_46">
      <text style="font-size: 9.1px; font-family: 'DejaVu Sans'; text-anchor: end" x="39.571428" y="302.210383" transform="rotate(-0 39.571428 302.210383)">1.0</text>
     </g>
    </g>
    <g id="ytick_13">
     <g id="line2d_69">
      <path d="M 46.571428 264.563117 
L 529.14084 264.563117 
" clip-path="url(#p42e5be3b51)" style="fill: none; stroke: #e5e7eb; stroke-width: 0.8; stroke-linecap: square"/>
     </g>
     <g id="line2d_70">
      <g>
       <use xlink:href="#ma98d4eca8a" x="46.571428" y="264.563117" style="stroke: #000000; stroke-width: 0.8"/>
      </g>
     </g>
     <g id="text_47">
      <text style="font-size: 9.1px; font-family: 'DejaVu Sans'; text-anchor: end" x="39.571428" y="268.020406" transform="rotate(-0 39.571428 268.020406)">1.2</text>
     </g>
    </g>
    <g id="ytick_14">
     <g id="line2d_71">
      <path d="M 46.571428 230.37314 
L 529.14084 230.37314 
" clip-path="url(#p42e5be3b51)" style="fill: none; stroke: #e5e7eb; stroke-width: 0.8; stroke-linecap: square"/>
     </g>
     <g id="line2d_72">
      <g>
       <use xlink:href="#ma98d4eca8a" x="46.571428" y="230.37314" style="stroke: #000000; stroke-width: 0.8"/>
      </g>
     </g>
     <g id="text_48">
      <text style="font-size: 9.1px; font-family: 'DejaVu Sans'; text-anchor: end" x="39.571428" y="233.830429" transform="rotate(-0 39.571428 233.830429)">1.4</text>
     </g>
    </g>
    <g id="text_49">
     <text style="font-size: 8.9px; font-family: 'DejaVu Sans'" transform="translate(9.282609 309.456875) rotate(-90)">error relative to</text>
     <text style="font-size: 8.9px; font-family: 'DejaVu Sans'" transform="translate(19.248663 328.660016) rotate(-90)">observable-specific best</text>
    </g>
   </g>
   <g id="line2d_73">
    <path d="M 46.571428 298.753094 
L 529.14084 298.753094 
" clip-path="url(#p42e5be3b51)" style="fill: none; stroke-dasharray: 3.33,1.44; stroke-dashoffset: 0; stroke: #334155; stroke-width: 0.9"/>
   </g>
   <g id="patch_14">
    <path d="M 46.571428 324.395576 
L 46.571428 224.817268 
" style="fill: none; stroke: #000000; stroke-width: 0.8; stroke-linejoin: miter; stroke-linecap: square"/>
   </g>
   <g id="patch_15">
    <path d="M 46.571428 324.395576 
L 529.14084 324.395576 
" style="fill: none; stroke: #000000; stroke-width: 0.8; stroke-linejoin: miter; stroke-linecap: square"/>
   </g>
   <g id="text_50">
    <text style="font-weight: 700; font-size: 8px; font-family: 'DejaVu Sans'; text-anchor: middle; fill: #334155" x="104.043509" y="292.815597" transform="rotate(-0 104.043509 292.815597)">1.00x</text>
   </g>
   <g id="text_51">
    <text style="font-weight: 700; font-size: 8px; font-family: 'DejaVu Sans'; text-anchor: middle; fill: #334155" x="226.585259" y="285.912815" transform="rotate(-0 226.585259 285.912815)">1.04x</text>
   </g>
   <g id="text_52">
    <text style="font-weight: 700; font-size: 8px; font-family: 'DejaVu Sans'; text-anchor: middle; fill: #334155" x="349.127009" y="262.706919" transform="rotate(-0 349.127009 262.706919)">1.18x</text>
   </g>
   <g id="text_53">
    <text style="font-weight: 700; font-size: 8px; font-family: 'DejaVu Sans'; text-anchor: middle; fill: #334155" x="471.668759" y="239.393757" transform="rotate(-0 471.668759 239.393757)">1.31x</text>
   </g>
   <g id="text_54">
    <text style="font-weight: 700; font-size: 8.2px; font-family: 'DejaVu Sans'; text-anchor: start; fill: #1f4e79" x="53.809969" y="241.005818" transform="rotate(-0 53.809969 241.005818)">selected by BTC-only validation: velocity</text>
   </g>
   <g id="text_55">
    <text style="font-size: 7.6px; font-family: 'DejaVu Sans'; text-anchor: end; fill: #64748b" x="521.902299" y="312.857183" transform="rotate(-0 521.902299 312.857183)">1.0 = best memory for that observable</text>
   </g>
   <g id="text_56">
    <text style="font-weight: 700; font-size: 10.2px; font-family: 'DejaVu Sans'; text-anchor: start; fill: #102a43" x="46.571428" y="218.712855" transform="rotate(-0 46.571428 218.712855)">c</text>
   </g>
   <g id="text_57">
    <text style="font-weight: 700; font-size: 10.4px; font-family: 'DejaVu Sans'; text-anchor: middle; fill: #102a43" x="287.856134" y="218.817268" transform="rotate(-0 287.856134 218.817268)">Breakthrough-only selection favors velocity memory, not universal adequacy</text>
   </g>
  </g>
  <g id="text_58">
   <text style="font-weight: 700; font-size: 14.1px; font-family: 'DejaVu Sans'; text-anchor: start; fill: #102a43" x="11.719193" y="13.233797" transform="rotate(-0 11.719193 13.233797)">A model can arrive correctly and still forget the plume</text>
  </g>
  <g id="text_59">
   <text style="font-size: 9.15px; font-family: 'DejaVu Sans'; text-anchor: start; fill: #64748b" x="11.719193" y="24.5841" transform="rotate(-0 11.719193 24.5841)">Breakthrough-only validation selects arrival memory, but other observables expose unsafe forgetting.</text>
  </g>
 </g>
 <defs>
  <clipPath id="p0c5ca1c817">
   <rect x="46.571428" y="63.721694" width="211.253562" height="110.642565"/>
  </clipPath>
  <clipPath id="p8074f14d22">
   <rect x="326.171731" y="63.721694" width="202.969109" height="110.642565"/>
  </clipPath>
  <clipPath id="p42e5be3b51">
   <rect x="46.571428" y="224.817268" width="482.569412" height="99.578308"/>
  </clipPath>
 </defs>
</svg>
