<svg xmlns="http://www.w3.org/2000/svg" width="940" height="560" viewBox="0 0 940 560">
<style>
  .title { font: 700 20px -apple-system, BlinkMacSystemFont, "Segoe UI", sans-serif; fill: #111827; }
  .subtitle { font: 13px -apple-system, BlinkMacSystemFont, "Segoe UI", sans-serif; fill: #4b5563; }
  .axis { stroke: #374151; stroke-width: 1.2; }
  .grid { stroke: #e5e7eb; stroke-width: 1; }
  .tick { font: 11px -apple-system, BlinkMacSystemFont, "Segoe UI", sans-serif; fill: #4b5563; }
  .label { font: 700 13px -apple-system, BlinkMacSystemFont, "Segoe UI", sans-serif; fill: #374151; }
  .legend { font: 12px -apple-system, BlinkMacSystemFont, "Segoe UI", sans-serif; fill: #374151; }
  .small { font: 10.5px -apple-system, BlinkMacSystemFont, "Segoe UI", sans-serif; fill: #374151; }
  .stacklabel { font: 700 11px -apple-system, BlinkMacSystemFont, "Segoe UI", sans-serif; fill: #ffffff; }
</style>
<rect x="0" y="0" width="940" height="560" fill="#ffffff" />
<text x="470.0" y="30" text-anchor="middle" class="title">Mixture weights respond to geometry and flow fidelity</text>
<text x="84.0" y="50.0" class="subtitle">Mean validation-selected weights across outer splits.</text>
<line x1="84" y1="444" x2="740" y2="444" class="axis" />
<line x1="84" y1="444" x2="84" y2="76" class="axis" />
<text x="20" y="260.0" text-anchor="middle" class="label" transform="rotate(-90 20,260.0)">weight</text>
<line x1="84" y1="444.0" x2="740" y2="444.0" class="grid" />
<text x="76" y="448.0" class="tick" text-anchor="end">0.0</text>
<line x1="84" y1="370.4" x2="740" y2="370.4" class="grid" />
<text x="76" y="374.4" class="tick" text-anchor="end">0.2</text>
<line x1="84" y1="296.8" x2="740" y2="296.8" class="grid" />
<text x="76" y="300.8" class="tick" text-anchor="end">0.4</text>
<line x1="84" y1="223.2" x2="740" y2="223.2" class="grid" />
<text x="76" y="227.2" class="tick" text-anchor="end">0.6</text>
<line x1="84" y1="149.6" x2="740" y2="149.6" class="grid" />
<text x="76" y="153.6" class="tick" text-anchor="end">0.8</text>
<line x1="84" y1="76.0" x2="740" y2="76.0" class="grid" />
<text x="76" y="80.0" class="tick" text-anchor="end">1.0</text>
<rect x="143.0" y="292.2" width="100.6" height="151.8" fill="#111827" />
<text x="193.3" y="372.1" class="stacklabel" text-anchor="middle">0.41</text>
<rect x="143.0" y="237.0" width="100.6" height="55.2" fill="#d97706" />
<text x="193.3" y="268.6" class="stacklabel" text-anchor="middle">0.15</text>
<rect x="143.0" y="85.2" width="100.6" height="151.8" fill="#7c3aed" />
<text x="193.3" y="165.1" class="stacklabel" text-anchor="middle">0.41</text>
<rect x="143.0" y="76.0" width="100.6" height="9.2" fill="#be123c" />
<text x="193.3" y="468" class="tick" text-anchor="middle">Core1</text>
<text x="193.3" y="484" class="tick" text-anchor="middle">graph flow</text>
<rect x="361.7" y="267.7" width="100.6" height="176.3" fill="#111827" />
<text x="412.0" y="359.8" class="stacklabel" text-anchor="middle">0.48</text>
<rect x="361.7" y="198.7" width="100.6" height="69.0" fill="#d97706" />
<text x="412.0" y="237.2" class="stacklabel" text-anchor="middle">0.19</text>
<rect x="361.7" y="99.0" width="100.6" height="99.7" fill="#7c3aed" />
<text x="412.0" y="152.8" class="stacklabel" text-anchor="middle">0.27</text>
<rect x="361.7" y="76.0" width="100.6" height="23.0" fill="#be123c" />
<text x="412.0" y="468" class="tick" text-anchor="middle">Core2</text>
<text x="412.0" y="484" class="tick" text-anchor="middle">graph flow</text>
<rect x="580.4" y="321.3" width="100.6" height="122.7" fill="#111827" />
<text x="630.7" y="386.7" class="stacklabel" text-anchor="middle">0.33</text>
<rect x="580.4" y="260.0" width="100.6" height="61.3" fill="#d97706" />
<text x="630.7" y="294.7" class="stacklabel" text-anchor="middle">0.17</text>
<rect x="580.4" y="106.7" width="100.6" height="153.3" fill="#7c3aed" />
<text x="630.7" y="187.3" class="stacklabel" text-anchor="middle">0.42</text>
<rect x="580.4" y="76.0" width="100.6" height="30.7" fill="#be123c" />
<text x="630.7" y="468" class="tick" text-anchor="middle">Core2</text>
<text x="630.7" y="484" class="tick" text-anchor="middle">OpenFOAM</text>
<text x="766.0" y="80.0" class="label">components</text>
<rect x="766" y="84" width="22" height="16" fill="#111827" />
<text x="800" y="98" class="legend">Gaussian/Bayes</text>
<rect x="766" y="112" width="22" height="16" fill="#d97706" />
<text x="800" y="126" class="legend">kNN</text>
<rect x="766" y="140" width="22" height="16" fill="#7c3aed" />
<text x="800" y="154" class="legend">hybrid</text>
<rect x="766" y="168" width="22" height="16" fill="#be123c" />
<text x="800" y="182" class="legend">pair rerank</text>
</svg>
