<?xml version="1.0" encoding="utf-8" standalone="no"?>
<!DOCTYPE svg PUBLIC "-//W3C//DTD SVG 1.1//EN"
  "http://www.w3.org/Graphics/SVG/1.1/DTD/svg11.dtd">
<svg xmlns:xlink="http://www.w3.org/1999/xlink" width="537.117666pt" height="500.538187pt" viewBox="0 0 537.117666 500.538187" xmlns="http://www.w3.org/2000/svg" version="1.1">
 <metadata>
  <rdf:RDF xmlns:dc="http://purl.org/dc/elements/1.1/" xmlns:cc="http://creativecommons.org/ns#" xmlns:rdf="http://www.w3.org/1999/02/22-rdf-syntax-ns#">
   <cc:Work>
    <dc:type rdf:resource="http://purl.org/dc/dcmitype/StillImage"/>
    <dc:date>2026-05-18T14:35:47.319161</dc:date>
    <dc:format>image/svg+xml</dc:format>
    <dc:creator>
     <cc:Agent>
      <dc:title>Matplotlib v3.10.8, https://matplotlib.org/</dc:title>
     </cc:Agent>
    </dc:creator>
   </cc:Work>
  </rdf:RDF>
 </metadata>
 <defs>
  <style type="text/css">*{stroke-linejoin: round; stroke-linecap: butt}</style>
 </defs>
 <g id="figure_1">
  <g id="patch_1">
   <path d="M 0 500.538187 
L 537.117666 500.538187 
L 537.117666 0 
L 0 0 
z
" style="fill: #ffffff"/>
  </g>
  <g id="axes_1">
   <g id="patch_2">
    <path d="M 65.882437 235.407161 
L 516.280555 235.407161 
L 516.280555 76.212 
L 65.882437 76.212 
z
" style="fill: #ffffff"/>
   </g>
   <g id="patch_3">
    <path d="M 65.882437 101.221128 
L 214.039713 101.221128 
L 214.039713 83.448144 
L 65.882437 83.448144 
z
" clip-path="url(#p7944214c0a)" style="fill: #1f4e79; stroke: #ffffff; stroke-width: 0.8; stroke-linejoin: miter"/>
   </g>
   <g id="patch_4">
    <path d="M 65.882437 132.9586 
L 192.874388 132.9586 
L 192.874388 115.185616 
L 65.882437 115.185616 
z
" clip-path="url(#p7944214c0a)" style="fill: #1f4e79; stroke: #ffffff; stroke-width: 0.8; stroke-linejoin: miter"/>
   </g>
   <g id="patch_5">
    <path d="M 65.882437 164.696073 
L 192.874388 164.696073 
L 192.874388 146.923088 
L 65.882437 146.923088 
z
" clip-path="url(#p7944214c0a)" style="fill: #1f4e79; stroke: #ffffff; stroke-width: 0.8; stroke-linejoin: miter"/>
   </g>
   <g id="patch_6">
    <path d="M 65.882437 196.433545 
L 150.543738 196.433545 
L 150.543738 178.660561 
L 65.882437 178.660561 
z
" clip-path="url(#p7944214c0a)" style="fill: #1f4e79; stroke: #ffffff; stroke-width: 0.8; stroke-linejoin: miter"/>
   </g>
   <g id="patch_7">
    <path d="M 65.882437 228.171017 
L 150.543738 228.171017 
L 150.543738 210.398033 
L 65.882437 210.398033 
z
" clip-path="url(#p7944214c0a)" style="fill: #1f4e79; stroke: #ffffff; stroke-width: 0.8; stroke-linejoin: miter"/>
   </g>
   <g id="patch_8">
    <path d="M 214.039713 101.221128 
L 256.370363 101.221128 
L 256.370363 83.448144 
L 214.039713 83.448144 
z
" clip-path="url(#p7944214c0a)" style="fill: #d97706; stroke: #ffffff; stroke-width: 0.8; stroke-linejoin: miter"/>
   </g>
   <g id="patch_9">
    <path d="M 192.874388 132.9586 
L 235.205038 132.9586 
L 235.205038 115.185616 
L 192.874388 115.185616 
z
" clip-path="url(#p7944214c0a)" style="fill: #d97706; stroke: #ffffff; stroke-width: 0.8; stroke-linejoin: miter"/>
   </g>
   <g id="patch_10">
    <path d="M 192.874388 164.696073 
L 214.039713 164.696073 
L 214.039713 146.923088 
L 192.874388 146.923088 
z
" clip-path="url(#p7944214c0a)" style="fill: #d97706; stroke: #ffffff; stroke-width: 0.8; stroke-linejoin: miter"/>
   </g>
   <g id="patch_11">
    <path d="M 150.543738 196.433545 
L 192.874388 196.433545 
L 192.874388 178.660561 
L 150.543738 178.660561 
z
" clip-path="url(#p7944214c0a)" style="fill: #d97706; stroke: #ffffff; stroke-width: 0.8; stroke-linejoin: miter"/>
   </g>
   <g id="patch_12">
    <path d="M 150.543738 228.171017 
L 192.874388 228.171017 
L 192.874388 210.398033 
L 150.543738 210.398033 
z
" clip-path="url(#p7944214c0a)" style="fill: #d97706; stroke: #ffffff; stroke-width: 0.8; stroke-linejoin: miter"/>
   </g>
   <g id="patch_13">
    <path d="M 256.370363 101.221128 
L 404.527639 101.221128 
L 404.527639 83.448144 
L 256.370363 83.448144 
z
" clip-path="url(#p7944214c0a)" style="fill: #2f855a; stroke: #ffffff; stroke-width: 0.8; stroke-linejoin: miter"/>
   </g>
   <g id="patch_14">
    <path d="M 235.205038 132.9586 
L 383.362314 132.9586 
L 383.362314 115.185616 
L 235.205038 115.185616 
z
" clip-path="url(#p7944214c0a)" style="fill: #2f855a; stroke: #ffffff; stroke-width: 0.8; stroke-linejoin: miter"/>
   </g>
   <g id="patch_15">
    <path d="M 214.039713 164.696073 
L 404.527639 164.696073 
L 404.527639 146.923088 
L 214.039713 146.923088 
z
" clip-path="url(#p7944214c0a)" style="fill: #2f855a; stroke: #ffffff; stroke-width: 0.8; stroke-linejoin: miter"/>
   </g>
   <g id="patch_16">
    <path d="M 192.874388 196.433545 
L 404.527639 196.433545 
L 404.527639 178.660561 
L 192.874388 178.660561 
z
" clip-path="url(#p7944214c0a)" style="fill: #2f855a; stroke: #ffffff; stroke-width: 0.8; stroke-linejoin: miter"/>
   </g>
   <g id="patch_17">
    <path d="M 192.874388 228.171017 
L 404.527639 228.171017 
L 404.527639 210.398033 
L 192.874388 210.398033 
z
" clip-path="url(#p7944214c0a)" style="fill: #2f855a; stroke: #ffffff; stroke-width: 0.8; stroke-linejoin: miter"/>
   </g>
   <g id="patch_18">
    <path d="M 404.527639 101.221128 
L 404.527639 101.221128 
L 404.527639 83.448144 
L 404.527639 83.448144 
z
" clip-path="url(#p7944214c0a)" style="fill: #b83280; stroke: #ffffff; stroke-width: 0.8; stroke-linejoin: miter"/>
   </g>
   <g id="patch_19">
    <path d="M 383.362314 132.9586 
L 404.527639 132.9586 
L 404.527639 115.185616 
L 383.362314 115.185616 
z
" clip-path="url(#p7944214c0a)" style="fill: #b83280; stroke: #ffffff; stroke-width: 0.8; stroke-linejoin: miter"/>
   </g>
   <g id="patch_20">
    <path d="M 404.527639 164.696073 
L 404.527639 164.696073 
L 404.527639 146.923088 
L 404.527639 146.923088 
z
" clip-path="url(#p7944214c0a)" style="fill: #b83280; stroke: #ffffff; stroke-width: 0.8; stroke-linejoin: miter"/>
   </g>
   <g id="patch_21">
    <path d="M 404.527639 196.433545 
L 404.527639 196.433545 
L 404.527639 178.660561 
L 404.527639 178.660561 
z
" clip-path="url(#p7944214c0a)" style="fill: #b83280; stroke: #ffffff; stroke-width: 0.8; stroke-linejoin: miter"/>
   </g>
   <g id="patch_22">
    <path d="M 404.527639 228.171017 
L 404.527639 228.171017 
L 404.527639 210.398033 
L 404.527639 210.398033 
z
" clip-path="url(#p7944214c0a)" style="fill: #b83280; stroke: #ffffff; stroke-width: 0.8; stroke-linejoin: miter"/>
   </g>
   <g id="matplotlib.axis_1">
    <g id="xtick_1">
     <g id="line2d_1">
      <path d="M 65.882437 235.407161 
L 65.882437 76.212 
" clip-path="url(#p7944214c0a)" style="fill: none; stroke: #e5e7eb; stroke-width: 0.8; stroke-linecap: square"/>
     </g>
     <g id="line2d_2">
      <defs>
       <path id="mcc663beb0e" d="M 0 0 
L 0 3.5 
" style="stroke: #000000; stroke-width: 0.8"/>
      </defs>
      <g>
       <use xlink:href="#mcc663beb0e" x="65.882437" y="235.407161" style="stroke: #000000; stroke-width: 0.8"/>
      </g>
     </g>
     <g id="text_1">
      <text style="font-size: 9.2px; font-family: 'DejaVu Sans'; text-anchor: middle" x="65.882437" y="249.397723" transform="rotate(-0 65.882437 249.397723)">0.0</text>
     </g>
    </g>
    <g id="xtick_2">
     <g id="line2d_3">
      <path d="M 133.611478 235.407161 
L 133.611478 76.212 
" clip-path="url(#p7944214c0a)" style="fill: none; stroke: #e5e7eb; stroke-width: 0.8; stroke-linecap: square"/>
     </g>
     <g id="line2d_4">
      <g>
       <use xlink:href="#mcc663beb0e" x="133.611478" y="235.407161" style="stroke: #000000; stroke-width: 0.8"/>
      </g>
     </g>
     <g id="text_2">
      <text style="font-size: 9.2px; font-family: 'DejaVu Sans'; text-anchor: middle" x="133.611478" y="249.397723" transform="rotate(-0 133.611478 249.397723)">0.2</text>
     </g>
    </g>
    <g id="xtick_3">
     <g id="line2d_5">
      <path d="M 201.340518 235.407161 
L 201.340518 76.212 
" clip-path="url(#p7944214c0a)" style="fill: none; stroke: #e5e7eb; stroke-width: 0.8; stroke-linecap: square"/>
     </g>
     <g id="line2d_6">
      <g>
       <use xlink:href="#mcc663beb0e" x="201.340518" y="235.407161" style="stroke: #000000; stroke-width: 0.8"/>
      </g>
     </g>
     <g id="text_3">
      <text style="font-size: 9.2px; font-family: 'DejaVu Sans'; text-anchor: middle" x="201.340518" y="249.397723" transform="rotate(-0 201.340518 249.397723)">0.4</text>
     </g>
    </g>
    <g id="xtick_4">
     <g id="line2d_7">
      <path d="M 269.069558 235.407161 
L 269.069558 76.212 
" clip-path="url(#p7944214c0a)" style="fill: none; stroke: #e5e7eb; stroke-width: 0.8; stroke-linecap: square"/>
     </g>
     <g id="line2d_8">
      <g>
       <use xlink:href="#mcc663beb0e" x="269.069558" y="235.407161" style="stroke: #000000; stroke-width: 0.8"/>
      </g>
     </g>
     <g id="text_4">
      <text style="font-size: 9.2px; font-family: 'DejaVu Sans'; text-anchor: middle" x="269.069558" y="249.397723" transform="rotate(-0 269.069558 249.397723)">0.6</text>
     </g>
    </g>
    <g id="xtick_5">
     <g id="line2d_9">
      <path d="M 336.798598 235.407161 
L 336.798598 76.212 
" clip-path="url(#p7944214c0a)" style="fill: none; stroke: #e5e7eb; stroke-width: 0.8; stroke-linecap: square"/>
     </g>
     <g id="line2d_10">
      <g>
       <use xlink:href="#mcc663beb0e" x="336.798598" y="235.407161" style="stroke: #000000; stroke-width: 0.8"/>
      </g>
     </g>
     <g id="text_5">
      <text style="font-size: 9.2px; font-family: 'DejaVu Sans'; text-anchor: middle" x="336.798598" y="249.397723" transform="rotate(-0 336.798598 249.397723)">0.8</text>
     </g>
    </g>
    <g id="xtick_6">
     <g id="line2d_11">
      <path d="M 404.527639 235.407161 
L 404.527639 76.212 
" clip-path="url(#p7944214c0a)" style="fill: none; stroke: #e5e7eb; stroke-width: 0.8; stroke-linecap: square"/>
     </g>
     <g id="line2d_12">
      <g>
       <use xlink:href="#mcc663beb0e" x="404.527639" y="235.407161" style="stroke: #000000; stroke-width: 0.8"/>
      </g>
     </g>
     <g id="text_6">
      <text style="font-size: 9.2px; font-family: 'DejaVu Sans'; text-anchor: middle" x="404.527639" y="249.397723" transform="rotate(-0 404.527639 249.397723)">1.0</text>
     </g>
    </g>
    <g id="xtick_7">
     <g id="line2d_13">
      <path d="M 472.256679 235.407161 
L 472.256679 76.212 
" clip-path="url(#p7944214c0a)" style="fill: none; stroke: #e5e7eb; stroke-width: 0.8; stroke-linecap: square"/>
     </g>
     <g id="line2d_14">
      <g>
       <use xlink:href="#mcc663beb0e" x="472.256679" y="235.407161" style="stroke: #000000; stroke-width: 0.8"/>
      </g>
     </g>
     <g id="text_7">
      <text style="font-size: 9.2px; font-family: 'DejaVu Sans'; text-anchor: middle" x="472.256679" y="249.397723" transform="rotate(-0 472.256679 249.397723)">1.2</text>
     </g>
    </g>
    <g id="text_8">
     <text style="font-size: 9px; font-family: 'DejaVu Sans'; text-anchor: middle" x="291.081496" y="262.14963" transform="rotate(-0 291.081496 262.14963)">validation-selected mixture weight</text>
    </g>
   </g>
   <g id="matplotlib.axis_2">
    <g id="ytick_1">
     <g id="line2d_15">
      <defs>
       <path id="mf6f8858e33" d="M 0 0 
L -3.5 0 
" style="stroke: #000000; stroke-width: 0.8"/>
      </defs>
      <g>
       <use xlink:href="#mf6f8858e33" x="65.882437" y="92.334636" style="stroke: #000000; stroke-width: 0.8"/>
      </g>
     </g>
     <g id="text_9">
      <text style="font-size: 9.2px; font-family: 'DejaVu Sans'; text-anchor: end" x="58.882437" y="95.829917" transform="rotate(-0 58.882437 95.829917)">balanced</text>
     </g>
    </g>
    <g id="ytick_2">
     <g id="line2d_16">
      <g>
       <use xlink:href="#mf6f8858e33" x="65.882437" y="124.072108" style="stroke: #000000; stroke-width: 0.8"/>
      </g>
     </g>
     <g id="text_10">
      <text style="font-size: 9.2px; font-family: 'DejaVu Sans'; text-anchor: end" x="58.882437" y="127.567389" transform="rotate(-0 58.882437 127.567389)">arrival</text>
     </g>
    </g>
    <g id="ytick_3">
     <g id="line2d_17">
      <g>
       <use xlink:href="#mf6f8858e33" x="65.882437" y="155.80958" style="stroke: #000000; stroke-width: 0.8"/>
      </g>
     </g>
     <g id="text_11">
      <text style="font-size: 9.2px; font-family: 'DejaVu Sans'; text-anchor: end" x="58.882437" y="159.304862" transform="rotate(-0 58.882437 159.304862)">dilution</text>
     </g>
    </g>
    <g id="ytick_4">
     <g id="line2d_18">
      <g>
       <use xlink:href="#mf6f8858e33" x="65.882437" y="187.547053" style="stroke: #000000; stroke-width: 0.8"/>
      </g>
     </g>
     <g id="text_12">
      <text style="font-size: 9.2px; font-family: 'DejaVu Sans'; text-anchor: end" x="58.882437" y="191.042334" transform="rotate(-0 58.882437 191.042334)">pairs</text>
     </g>
    </g>
    <g id="ytick_5">
     <g id="line2d_19">
      <g>
       <use xlink:href="#mf6f8858e33" x="65.882437" y="219.284525" style="stroke: #000000; stroke-width: 0.8"/>
      </g>
     </g>
     <g id="text_13">
      <text style="font-size: 9.2px; font-family: 'DejaVu Sans'; text-anchor: end" x="58.882437" y="222.779806" transform="rotate(-0 58.882437 222.779806)">encounters</text>
     </g>
    </g>
   </g>
   <g id="patch_23">
    <path d="M 65.882437 235.407161 
L 65.882437 76.212 
" style="fill: none; stroke: #000000; stroke-width: 0.8; stroke-linejoin: miter; stroke-linecap: square"/>
   </g>
   <g id="patch_24">
    <path d="M 65.882437 235.407161 
L 516.280555 235.407161 
" style="fill: none; stroke: #000000; stroke-width: 0.8; stroke-linejoin: miter; stroke-linecap: square"/>
   </g>
   <g id="text_14">
    <text style="font-weight: 700; font-size: 8px; font-family: 'DejaVu Sans'; text-anchor: middle; fill: #ffffff" x="139.961075" y="94.542136" transform="rotate(-0 139.961075 94.542136)">0.44</text>
   </g>
   <g id="text_15">
    <text style="font-weight: 700; font-size: 8px; font-family: 'DejaVu Sans'; text-anchor: middle; fill: #ffffff" x="129.378413" y="126.279608" transform="rotate(-0 129.378413 126.279608)">0.38</text>
   </g>
   <g id="text_16">
    <text style="font-weight: 700; font-size: 8px; font-family: 'DejaVu Sans'; text-anchor: middle; fill: #ffffff" x="129.378413" y="158.01708" transform="rotate(-0 129.378413 158.01708)">0.38</text>
   </g>
   <g id="text_17">
    <text style="font-weight: 700; font-size: 8px; font-family: 'DejaVu Sans'; text-anchor: middle; fill: #ffffff" x="108.213088" y="189.754553" transform="rotate(-0 108.213088 189.754553)">0.25</text>
   </g>
   <g id="text_18">
    <text style="font-weight: 700; font-size: 8px; font-family: 'DejaVu Sans'; text-anchor: middle; fill: #ffffff" x="108.213088" y="221.492025" transform="rotate(-0 108.213088 221.492025)">0.25</text>
   </g>
   <g id="text_19">
    <text style="font-weight: 700; font-size: 8px; font-family: 'DejaVu Sans'; text-anchor: middle; fill: #ffffff" x="235.205038" y="94.542136" transform="rotate(-0 235.205038 94.542136)">0.12</text>
   </g>
   <g id="text_20">
    <text style="font-weight: 700; font-size: 8px; font-family: 'DejaVu Sans'; text-anchor: middle; fill: #ffffff" x="214.039713" y="126.279608" transform="rotate(-0 214.039713 126.279608)">0.12</text>
   </g>
   <g id="text_21">
    <text style="font-weight: 700; font-size: 8px; font-family: 'DejaVu Sans'; text-anchor: middle; fill: #ffffff" x="171.709063" y="189.754553" transform="rotate(-0 171.709063 189.754553)">0.12</text>
   </g>
   <g id="text_22">
    <text style="font-weight: 700; font-size: 8px; font-family: 'DejaVu Sans'; text-anchor: middle; fill: #ffffff" x="171.709063" y="221.492025" transform="rotate(-0 171.709063 221.492025)">0.12</text>
   </g>
   <g id="text_23">
    <text style="font-weight: 700; font-size: 8px; font-family: 'DejaVu Sans'; text-anchor: middle; fill: #ffffff" x="330.449001" y="94.542136" transform="rotate(-0 330.449001 94.542136)">0.44</text>
   </g>
   <g id="text_24">
    <text style="font-weight: 700; font-size: 8px; font-family: 'DejaVu Sans'; text-anchor: middle; fill: #ffffff" x="309.283676" y="126.279608" transform="rotate(-0 309.283676 126.279608)">0.44</text>
   </g>
   <g id="text_25">
    <text style="font-weight: 700; font-size: 8px; font-family: 'DejaVu Sans'; text-anchor: middle; fill: #ffffff" x="309.283676" y="158.01708" transform="rotate(-0 309.283676 158.01708)">0.56</text>
   </g>
   <g id="text_26">
    <text style="font-weight: 700; font-size: 8px; font-family: 'DejaVu Sans'; text-anchor: middle; fill: #ffffff" x="298.701013" y="189.754553" transform="rotate(-0 298.701013 189.754553)">0.62</text>
   </g>
   <g id="text_27">
    <text style="font-weight: 700; font-size: 8px; font-family: 'DejaVu Sans'; text-anchor: middle; fill: #ffffff" x="298.701013" y="221.492025" transform="rotate(-0 298.701013 221.492025)">0.62</text>
   </g>
   <g id="text_28">
    <text style="font-size: 8.6px; font-family: 'DejaVu Sans'; text-anchor: start; fill: #1f4e79" x="414.686995" y="94.707698" transform="rotate(-0 414.686995 94.707698)">best memory: velocity</text>
   </g>
   <g id="text_29">
    <text style="font-size: 8.6px; font-family: 'DejaVu Sans'; text-anchor: start; fill: #1f4e79" x="414.686995" y="126.445171" transform="rotate(-0 414.686995 126.445171)">best memory: velocity</text>
   </g>
   <g id="text_30">
    <text style="font-size: 8.6px; font-family: 'DejaVu Sans'; text-anchor: start; fill: #2f855a" x="414.686995" y="158.182643" transform="rotate(-0 414.686995 158.182643)">best memory: learned</text>
   </g>
   <g id="text_31">
    <text style="font-size: 8.6px; font-family: 'DejaVu Sans'; text-anchor: start; fill: #d97706" x="414.686995" y="189.920115" transform="rotate(-0 414.686995 189.920115)">best memory: archive</text>
   </g>
   <g id="text_32">
    <text style="font-size: 8.6px; font-family: 'DejaVu Sans'; text-anchor: start; fill: #1f4e79" x="414.686995" y="221.657588" transform="rotate(-0 414.686995 221.657588)">best memory: velocity</text>
   </g>
   <g id="text_33">
    <text style="font-weight: 700; font-size: 10.5px; font-family: 'DejaVu Sans'; text-anchor: middle; fill: #102a43" x="291.081496" y="70.212" transform="rotate(-0 291.081496 70.212)">Validation target selects the memory mixture</text>
   </g>
   <g id="legend_1">
    <g id="patch_25">
     <path d="M 77.722993 274.489105 
L 94.122993 274.489105 
L 94.122993 268.749105 
L 77.722993 268.749105 
z
" style="fill: #1f4e79; stroke: #ffffff; stroke-width: 0.8; stroke-linejoin: miter"/>
    </g>
    <g id="text_34">
     <text style="font-size: 8.2px; font-family: 'DejaVu Sans'; text-anchor: start" x="100.682993" y="274.489105" transform="rotate(-0 100.682993 274.489105)">velocity memory</text>
    </g>
    <g id="patch_26">
     <path d="M 177.80015 274.489105 
L 194.20015 274.489105 
L 194.20015 268.749105 
L 177.80015 268.749105 
z
" style="fill: #d97706; stroke: #ffffff; stroke-width: 0.8; stroke-linejoin: miter"/>
    </g>
    <g id="text_35">
     <text style="font-size: 8.2px; font-family: 'DejaVu Sans'; text-anchor: start" x="200.76015" y="274.489105" transform="rotate(-0 200.76015 274.489105)">archive proximity</text>
    </g>
    <g id="patch_27">
     <path d="M 280.278368 274.489105 
L 296.678368 274.489105 
L 296.678368 268.749105 
L 280.278368 268.749105 
z
" style="fill: #2f855a; stroke: #ffffff; stroke-width: 0.8; stroke-linejoin: miter"/>
    </g>
    <g id="text_36">
     <text style="font-size: 8.2px; font-family: 'DejaVu Sans'; text-anchor: start" x="303.238368" y="274.489105" transform="rotate(-0 303.238368 274.489105)">learned context</text>
    </g>
    <g id="patch_28">
     <path d="M 375.976212 274.489105 
L 392.376212 274.489105 
L 392.376212 268.749105 
L 375.976212 268.749105 
z
" style="fill: #b83280; stroke: #ffffff; stroke-width: 0.8; stroke-linejoin: miter"/>
    </g>
    <g id="text_37">
     <text style="font-size: 8.2px; font-family: 'DejaVu Sans'; text-anchor: start" x="398.936212" y="274.489105" transform="rotate(-0 398.936212 274.489105)">pair organization</text>
    </g>
   </g>
  </g>
  <g id="axes_2">
   <g id="patch_29">
    <path d="M 65.882437 464.724 
L 516.280555 464.724 
L 516.280555 313.109561 
L 65.882437 313.109561 
z
" style="fill: #ffffff"/>
   </g>
   <g id="PathCollection_1">
    <defs>
     <path id="m0c93c3e90c" d="M 0 10.701805 
C 2.838152 10.701805 5.560442 9.574195 7.567319 7.567319 
C 9.574195 5.560442 10.701805 2.838152 10.701805 0 
C 10.701805 -2.838152 9.574195 -5.560442 7.567319 -7.567319 
C 5.560442 -9.574195 2.838152 -10.701805 0 -10.701805 
C -2.838152 -10.701805 -5.560442 -9.574195 -7.567319 -7.567319 
C -9.574195 -5.560442 -10.701805 -2.838152 -10.701805 0 
C -10.701805 2.838152 -9.574195 5.560442 -7.567319 7.567319 
C -5.560442 9.574195 -2.838152 10.701805 0 10.701805 
z
" style="stroke: #ffffff; stroke-opacity: 0.82; stroke-width: 1.4"/>
    </defs>
    <g clip-path="url(#p7325c3cdcd)">
     <use xlink:href="#m0c93c3e90c" x="175.920531" y="328.623604" style="fill: #2563eb; fill-opacity: 0.82; stroke: #ffffff; stroke-opacity: 0.82; stroke-width: 1.4"/>
    </g>
   </g>
   <g id="PathCollection_2">
    <defs>
     <path id="mb55a28556a" d="M 0 10.670161 
C 2.82976 10.670161 5.544001 9.545885 7.544943 7.544943 
C 9.545885 5.544001 10.670161 2.82976 10.670161 0 
C 10.670161 -2.82976 9.545885 -5.544001 7.544943 -7.544943 
C 5.544001 -9.545885 2.82976 -10.670161 0 -10.670161 
C -2.82976 -10.670161 -5.544001 -9.545885 -7.544943 -7.544943 
C -9.545885 -5.544001 -10.670161 -2.82976 -10.670161 0 
C -10.670161 2.82976 -9.545885 5.544001 -7.544943 7.544943 
C -5.544001 9.545885 -2.82976 10.670161 0 10.670161 
z
" style="stroke: #ffffff; stroke-opacity: 0.82; stroke-width: 1.4"/>
    </defs>
    <g clip-path="url(#p7325c3cdcd)">
     <use xlink:href="#mb55a28556a" x="86.355079" y="320.001126" style="fill: #1f4e79; fill-opacity: 0.82; stroke: #ffffff; stroke-opacity: 0.82; stroke-width: 1.4"/>
    </g>
   </g>
   <g id="PathCollection_3">
    <defs>
     <path id="mfe028bb4d3" d="M 0 10.461047 
C 2.774302 10.461047 5.43535 9.358805 7.397078 7.397078 
C 9.358805 5.43535 10.461047 2.774302 10.461047 0 
C 10.461047 -2.774302 9.358805 -5.43535 7.397078 -7.397078 
C 5.43535 -9.358805 2.774302 -10.461047 0 -10.461047 
C -2.774302 -10.461047 -5.43535 -9.358805 -7.397078 -7.397078 
C -9.358805 -5.43535 -10.461047 -2.774302 -10.461047 0 
C -10.461047 2.774302 -9.358805 5.43535 -7.397078 7.397078 
C -5.43535 9.358805 -2.774302 10.461047 0 10.461047 
z
" style="stroke: #ffffff; stroke-opacity: 0.82; stroke-width: 1.4"/>
    </defs>
    <g clip-path="url(#p7325c3cdcd)">
     <use xlink:href="#mfe028bb4d3" x="136.145974" y="349.572278" style="fill: #2f855a; fill-opacity: 0.82; stroke: #ffffff; stroke-opacity: 0.82; stroke-width: 1.4"/>
    </g>
   </g>
   <g id="PathCollection_4">
    <defs>
     <path id="m9899e594c7" d="M 0 10.684474 
C 2.833556 10.684474 5.551438 9.558691 7.555064 7.555064 
C 9.558691 5.551438 10.684474 2.833556 10.684474 0 
C 10.684474 -2.833556 9.558691 -5.551438 7.555064 -7.555064 
C 5.551438 -9.558691 2.833556 -10.684474 0 -10.684474 
C -2.833556 -10.684474 -5.551438 -9.558691 -7.555064 -7.555064 
C -9.558691 -5.551438 -10.684474 -2.833556 -10.684474 0 
C -10.684474 2.833556 -9.558691 5.551438 -7.555064 7.555064 
C -5.551438 9.558691 -2.833556 10.684474 0 10.684474 
z
" style="stroke: #ffffff; stroke-opacity: 0.82; stroke-width: 1.4"/>
    </defs>
    <g clip-path="url(#p7325c3cdcd)">
     <use xlink:href="#m9899e594c7" x="441.913551" y="457.832435" style="fill: #d97706; fill-opacity: 0.82; stroke: #ffffff; stroke-opacity: 0.82; stroke-width: 1.4"/>
    </g>
   </g>
   <g id="PathCollection_5">
    <defs>
     <path id="m9f550476a5" d="M 0 11.026679 
C 2.924309 11.026679 5.72924 9.864839 7.79704 7.79704 
C 9.864839 5.72924 11.026679 2.924309 11.026679 0 
C 11.026679 -2.924309 9.864839 -5.72924 7.79704 -7.79704 
C 5.72924 -9.864839 2.924309 -11.026679 0 -11.026679 
C -2.924309 -11.026679 -5.72924 -9.864839 -7.79704 -7.79704 
C -9.864839 -5.72924 -11.026679 -2.924309 -11.026679 0 
C -11.026679 2.924309 -9.864839 5.72924 -7.79704 7.79704 
C -5.72924 9.864839 -2.924309 11.026679 0 11.026679 
z
" style="stroke: #ffffff; stroke-opacity: 0.82; stroke-width: 1.4"/>
    </defs>
    <g clip-path="url(#p7325c3cdcd)">
     <use xlink:href="#m9f550476a5" x="495.807913" y="367.534033" style="fill: #b83280; fill-opacity: 0.82; stroke: #ffffff; stroke-opacity: 0.82; stroke-width: 1.4"/>
    </g>
   </g>
   <g id="matplotlib.axis_3">
    <g id="xtick_8">
     <g id="line2d_20">
      <path d="M 69.618101 464.724 
L 69.618101 313.109561 
" clip-path="url(#p7325c3cdcd)" style="fill: none; stroke: #e5e7eb; stroke-width: 0.8; stroke-linecap: square"/>
     </g>
     <g id="line2d_21">
      <g>
       <use xlink:href="#mcc663beb0e" x="69.618101" y="464.724" style="stroke: #000000; stroke-width: 0.8"/>
      </g>
     </g>
     <g id="text_38">
      <text style="font-size: 9.2px; font-family: 'DejaVu Sans'; text-anchor: middle" x="69.618101" y="478.714562" transform="rotate(-0 69.618101 478.714562)">45</text>
     </g>
    </g>
    <g id="xtick_9">
     <g id="line2d_22">
      <path d="M 127.777485 464.724 
L 127.777485 313.109561 
" clip-path="url(#p7325c3cdcd)" style="fill: none; stroke: #e5e7eb; stroke-width: 0.8; stroke-linecap: square"/>
     </g>
     <g id="line2d_23">
      <g>
       <use xlink:href="#mcc663beb0e" x="127.777485" y="464.724" style="stroke: #000000; stroke-width: 0.8"/>
      </g>
     </g>
     <g id="text_39">
      <text style="font-size: 9.2px; font-family: 'DejaVu Sans'; text-anchor: middle" x="127.777485" y="478.714562" transform="rotate(-0 127.777485 478.714562)">50</text>
     </g>
    </g>
    <g id="xtick_10">
     <g id="line2d_24">
      <path d="M 185.936869 464.724 
L 185.936869 313.109561 
" clip-path="url(#p7325c3cdcd)" style="fill: none; stroke: #e5e7eb; stroke-width: 0.8; stroke-linecap: square"/>
     </g>
     <g id="line2d_25">
      <g>
       <use xlink:href="#mcc663beb0e" x="185.936869" y="464.724" style="stroke: #000000; stroke-width: 0.8"/>
      </g>
     </g>
     <g id="text_40">
      <text style="font-size: 9.2px; font-family: 'DejaVu Sans'; text-anchor: middle" x="185.936869" y="478.714562" transform="rotate(-0 185.936869 478.714562)">55</text>
     </g>
    </g>
    <g id="xtick_11">
     <g id="line2d_26">
      <path d="M 244.096253 464.724 
L 244.096253 313.109561 
" clip-path="url(#p7325c3cdcd)" style="fill: none; stroke: #e5e7eb; stroke-width: 0.8; stroke-linecap: square"/>
     </g>
     <g id="line2d_27">
      <g>
       <use xlink:href="#mcc663beb0e" x="244.096253" y="464.724" style="stroke: #000000; stroke-width: 0.8"/>
      </g>
     </g>
     <g id="text_41">
      <text style="font-size: 9.2px; font-family: 'DejaVu Sans'; text-anchor: middle" x="244.096253" y="478.714562" transform="rotate(-0 244.096253 478.714562)">60</text>
     </g>
    </g>
    <g id="xtick_12">
     <g id="line2d_28">
      <path d="M 302.255637 464.724 
L 302.255637 313.109561 
" clip-path="url(#p7325c3cdcd)" style="fill: none; stroke: #e5e7eb; stroke-width: 0.8; stroke-linecap: square"/>
     </g>
     <g id="line2d_29">
      <g>
       <use xlink:href="#mcc663beb0e" x="302.255637" y="464.724" style="stroke: #000000; stroke-width: 0.8"/>
      </g>
     </g>
     <g id="text_42">
      <text style="font-size: 9.2px; font-family: 'DejaVu Sans'; text-anchor: middle" x="302.255637" y="478.714562" transform="rotate(-0 302.255637 478.714562)">65</text>
     </g>
    </g>
    <g id="xtick_13">
     <g id="line2d_30">
      <path d="M 360.415021 464.724 
L 360.415021 313.109561 
" clip-path="url(#p7325c3cdcd)" style="fill: none; stroke: #e5e7eb; stroke-width: 0.8; stroke-linecap: square"/>
     </g>
     <g id="line2d_31">
      <g>
       <use xlink:href="#mcc663beb0e" x="360.415021" y="464.724" style="stroke: #000000; stroke-width: 0.8"/>
      </g>
     </g>
     <g id="text_43">
      <text style="font-size: 9.2px; font-family: 'DejaVu Sans'; text-anchor: middle" x="360.415021" y="478.714562" transform="rotate(-0 360.415021 478.714562)">70</text>
     </g>
    </g>
    <g id="xtick_14">
     <g id="line2d_32">
      <path d="M 418.574405 464.724 
L 418.574405 313.109561 
" clip-path="url(#p7325c3cdcd)" style="fill: none; stroke: #e5e7eb; stroke-width: 0.8; stroke-linecap: square"/>
     </g>
     <g id="line2d_33">
      <g>
       <use xlink:href="#mcc663beb0e" x="418.574405" y="464.724" style="stroke: #000000; stroke-width: 0.8"/>
      </g>
     </g>
     <g id="text_44">
      <text style="font-size: 9.2px; font-family: 'DejaVu Sans'; text-anchor: middle" x="418.574405" y="478.714562" transform="rotate(-0 418.574405 478.714562)">75</text>
     </g>
    </g>
    <g id="xtick_15">
     <g id="line2d_34">
      <path d="M 476.73379 464.724 
L 476.73379 313.109561 
" clip-path="url(#p7325c3cdcd)" style="fill: none; stroke: #e5e7eb; stroke-width: 0.8; stroke-linecap: square"/>
     </g>
     <g id="line2d_35">
      <g>
       <use xlink:href="#mcc663beb0e" x="476.73379" y="464.724" style="stroke: #000000; stroke-width: 0.8"/>
      </g>
     </g>
     <g id="text_45">
      <text style="font-size: 9.2px; font-family: 'DejaVu Sans'; text-anchor: middle" x="476.73379" y="478.714562" transform="rotate(-0 476.73379 478.714562)">80</text>
     </g>
    </g>
    <g id="text_46">
     <text style="font-size: 9px; font-family: 'DejaVu Sans'; text-anchor: middle" x="291.081496" y="491.466469" transform="rotate(-0 291.081496 491.466469)">arrival error</text>
    </g>
   </g>
   <g id="matplotlib.axis_4">
    <g id="ytick_6">
     <g id="line2d_36">
      <path d="M 65.882437 447.324694 
L 516.280555 447.324694 
" clip-path="url(#p7325c3cdcd)" style="fill: none; stroke: #e5e7eb; stroke-width: 0.8; stroke-linecap: square"/>
     </g>
     <g id="line2d_37">
      <g>
       <use xlink:href="#mf6f8858e33" x="65.882437" y="447.324694" style="stroke: #000000; stroke-width: 0.8"/>
      </g>
     </g>
     <g id="text_47">
      <text style="font-size: 9.2px; font-family: 'DejaVu Sans'; text-anchor: end" x="58.882437" y="450.819976" transform="rotate(-0 58.882437 450.819976)">2.3</text>
     </g>
    </g>
    <g id="ytick_7">
     <g id="line2d_38">
      <path d="M 65.882437 412.842911 
L 516.280555 412.842911 
" clip-path="url(#p7325c3cdcd)" style="fill: none; stroke: #e5e7eb; stroke-width: 0.8; stroke-linecap: square"/>
     </g>
     <g id="line2d_39">
      <g>
       <use xlink:href="#mf6f8858e33" x="65.882437" y="412.842911" style="stroke: #000000; stroke-width: 0.8"/>
      </g>
     </g>
     <g id="text_48">
      <text style="font-size: 9.2px; font-family: 'DejaVu Sans'; text-anchor: end" x="58.882437" y="416.338192" transform="rotate(-0 58.882437 416.338192)">2.4</text>
     </g>
    </g>
    <g id="ytick_8">
     <g id="line2d_40">
      <path d="M 65.882437 378.361127 
L 516.280555 378.361127 
" clip-path="url(#p7325c3cdcd)" style="fill: none; stroke: #e5e7eb; stroke-width: 0.8; stroke-linecap: square"/>
     </g>
     <g id="line2d_41">
      <g>
       <use xlink:href="#mf6f8858e33" x="65.882437" y="378.361127" style="stroke: #000000; stroke-width: 0.8"/>
      </g>
     </g>
     <g id="text_49">
      <text style="font-size: 9.2px; font-family: 'DejaVu Sans'; text-anchor: end" x="58.882437" y="381.856409" transform="rotate(-0 58.882437 381.856409)">2.5</text>
     </g>
    </g>
    <g id="ytick_9">
     <g id="line2d_42">
      <path d="M 65.882437 343.879344 
L 516.280555 343.879344 
" clip-path="url(#p7325c3cdcd)" style="fill: none; stroke: #e5e7eb; stroke-width: 0.8; stroke-linecap: square"/>
     </g>
     <g id="line2d_43">
      <g>
       <use xlink:href="#mf6f8858e33" x="65.882437" y="343.879344" style="stroke: #000000; stroke-width: 0.8"/>
      </g>
     </g>
     <g id="text_50">
      <text style="font-size: 9.2px; font-family: 'DejaVu Sans'; text-anchor: end" x="58.882437" y="347.374625" transform="rotate(-0 58.882437 347.374625)">2.6</text>
     </g>
    </g>
    <g id="text_51">
     <text style="font-size: 9px; font-family: 'DejaVu Sans'; text-anchor: middle" x="38.379844" y="388.91678" transform="rotate(-90 38.379844 388.91678)">pair-separation error</text>
    </g>
   </g>
   <g id="patch_30">
    <path d="M 65.882437 464.724 
L 65.882437 313.109561 
" style="fill: none; stroke: #000000; stroke-width: 0.8; stroke-linejoin: miter; stroke-linecap: square"/>
   </g>
   <g id="patch_31">
    <path d="M 65.882438 464.724 
L 516.280555 464.724 
" style="fill: none; stroke: #000000; stroke-width: 0.8; stroke-linejoin: miter; stroke-linecap: square"/>
   </g>
   <g id="text_52">
    <text style="font-size: 8.2px; font-family: 'DejaVu Sans'; text-anchor: start; fill: #334155" x="189.878783" y="321.727247" transform="rotate(-0 189.878783 321.727247)">mixture</text>
   </g>
   <g id="text_53">
    <text style="font-size: 8.2px; font-family: 'DejaVu Sans'; text-anchor: start; fill: #334155" x="100.313331" y="313.10477" transform="rotate(-0 100.313331 313.10477)">velocity</text>
   </g>
   <g id="text_54">
    <text style="font-size: 8.2px; font-family: 'DejaVu Sans'; text-anchor: start; fill: #334155" x="150.104226" y="342.675922" transform="rotate(-0 150.104226 342.675922)">learned</text>
   </g>
   <g id="text_55">
    <text style="font-size: 8.2px; font-family: 'DejaVu Sans'; text-anchor: end; fill: #334155" x="430.281674" y="450.936078" transform="rotate(-0 430.281674 450.936078)">archive</text>
   </g>
   <g id="text_56">
    <text style="font-size: 8.2px; font-family: 'DejaVu Sans'; text-anchor: start; fill: #334155" x="509.766166" y="360.637676" transform="rotate(-0 509.766166 360.637676)">pairs</text>
   </g>
   <g id="text_57">
    <text style="font-size: 8.4px; font-family: 'DejaVu Sans'; text-anchor: start; fill: #64748b" x="74.8904" y="455.627134" transform="rotate(-0 74.8904 455.627134)">circle size = dilution error</text>
   </g>
   <g id="text_58">
    <text style="font-weight: 700; font-size: 10.5px; font-family: 'DejaVu Sans'; text-anchor: middle; fill: #102a43" x="291.081496" y="307.109561" transform="rotate(-0 291.081496 307.109561)">No single memory preserves every outcome</text>
   </g>
  </g>
  <g id="text_59">
   <text style="font-weight: 700; font-size: 14.2px; font-family: 'DejaVu Sans'; text-anchor: start; fill: #102a43" x="12.263614" y="17.989781" transform="rotate(-0 12.263614 17.989781)">Different outcomes choose different memories</text>
  </g>
  <g id="text_60">
   <text style="font-size: 9.3px; font-family: 'DejaVu Sans'; text-anchor: start; fill: #475569" x="12.263614" y="34.714547" transform="rotate(-0 12.263614 34.714547)">Changing the validation target changes the selected mixture and the best fixed memory.</text>
  </g>
 </g>
 <defs>
  <clipPath id="p7944214c0a">
   <rect x="65.882437" y="76.212" width="450.398118" height="159.195161"/>
  </clipPath>
  <clipPath id="p7325c3cdcd">
   <rect x="65.882437" y="313.109561" width="450.398118" height="151.614439"/>
  </clipPath>
 </defs>
</svg>
