<svg xmlns="http://www.w3.org/2000/svg" width="960" height="580" viewBox="0 0 960 580">
<style>
  .title { font: 700 20px -apple-system, BlinkMacSystemFont, "Segoe UI", sans-serif; fill: #111827; }
  .subtitle { font: 13px -apple-system, BlinkMacSystemFont, "Segoe UI", sans-serif; fill: #4b5563; }
  .axis { stroke: #374151; stroke-width: 1.2; }
  .grid { stroke: #e5e7eb; stroke-width: 1; }
  .tick { font: 11px -apple-system, BlinkMacSystemFont, "Segoe UI", sans-serif; fill: #4b5563; }
  .label { font: 13px -apple-system, BlinkMacSystemFont, "Segoe UI", sans-serif; fill: #374151; }
  .legend { font: 12px -apple-system, BlinkMacSystemFont, "Segoe UI", sans-serif; fill: #374151; }
  .small { font: 10.5px -apple-system, BlinkMacSystemFont, "Segoe UI", sans-serif; fill: #374151; }
  .cell { font: 700 12px -apple-system, BlinkMacSystemFont, "Segoe UI", sans-serif; fill: #111827; text-anchor: middle; }
  .stacklabel { font: 700 11px -apple-system, BlinkMacSystemFont, "Segoe UI", sans-serif; fill: #ffffff; }
</style>
<rect x="0" y="0" width="960" height="580" fill="#ffffff" stroke="#fdfdfd" stroke-width="1" />
<rect x="959" y="579" width="1" height="1" fill="#f8f8f8" />
<text x="480.0" y="28" text-anchor="middle" class="title">No sampler dominates all transport metrics</text>
<text x="86.0" y="50.0" class="subtitle">Each point is a sampler averaged over four outer splits; smaller breakthrough and pair errors are better.</text>
<line x1="86" y1="500" x2="750" y2="500" class="axis" />
<line x1="86" y1="500" x2="86" y2="76" class="axis" />
<text x="20" y="288.0" text-anchor="middle" class="label" transform="rotate(-90 20,288.0)">pair-separation error</text>
<text x="418.0" y="564" text-anchor="middle" class="label">BTC error</text>
<line x1="86.0" y1="76" x2="86.0" y2="500" class="grid" />
<text x="86.0" y="518" class="tick" text-anchor="middle">156</text>
<line x1="86" y1="500.0" x2="750" y2="500.0" class="grid" />
<text x="78" y="504.0" class="tick" text-anchor="end">2.13</text>
<line x1="252.0" y1="76" x2="252.0" y2="500" class="grid" />
<text x="252.0" y="518" class="tick" text-anchor="middle">169</text>
<line x1="86" y1="394.0" x2="750" y2="394.0" class="grid" />
<text x="78" y="398.0" class="tick" text-anchor="end">2.26</text>
<line x1="418.0" y1="76" x2="418.0" y2="500" class="grid" />
<text x="418.0" y="518" class="tick" text-anchor="middle">182</text>
<line x1="86" y1="288.0" x2="750" y2="288.0" class="grid" />
<text x="78" y="292.0" class="tick" text-anchor="end">2.40</text>
<line x1="584.0" y1="76" x2="584.0" y2="500" class="grid" />
<text x="584.0" y="518" class="tick" text-anchor="middle">195</text>
<line x1="86" y1="182.0" x2="750" y2="182.0" class="grid" />
<text x="78" y="186.0" class="tick" text-anchor="end">2.53</text>
<line x1="750.0" y1="76" x2="750.0" y2="500" class="grid" />
<text x="750.0" y="518" class="tick" text-anchor="middle">208</text>
<line x1="86" y1="76.0" x2="750" y2="76.0" class="grid" />
<text x="78" y="80.0" class="tick" text-anchor="end">2.67</text>
<circle cx="504.1" cy="127.4" r="13.4" fill="#2563eb" fill-opacity="0.82" stroke="#ffffff" stroke-width="1.8" />
<text x="521.5" y="131.4" class="small">pooled mix</text>
<circle cx="150.3" cy="287.5" r="7.0" fill="#111827" fill-opacity="0.82" stroke="#ffffff" stroke-width="1.8" />
<text x="161.3" y="291.5" class="small">Gaussian/Bayes</text>
<circle cx="262.9" cy="448.6" r="13.0" fill="#7c3aed" fill-opacity="0.82" stroke="#ffffff" stroke-width="1.8" />
<text x="279.9" y="452.6" class="small">hybrid</text>
<circle cx="195.5" cy="270.7" r="9.9" fill="#0f766e" fill-opacity="0.82" stroke="#ffffff" stroke-width="1.8" />
<text x="209.4" y="274.7" class="small">mean mix</text>
<circle cx="553.6" cy="195.4" r="23.0" fill="#d97706" fill-opacity="0.82" stroke="#ffffff" stroke-width="1.8" />
<text x="580.6" y="199.4" class="small">kNN</text>
<circle cx="685.7" cy="146.9" r="19.9" fill="#be123c" fill-opacity="0.82" stroke="#ffffff" stroke-width="1.8" />
<text x="709.6" y="150.9" class="small">pair rerank</text>
<text x="782.0" y="100.0" class="label" font-weight="700">encoding</text>
<text x="782.0" y="126.0" class="legend">circle size: dilution</text>
<text x="782.0" y="146.0" class="legend">log-MAE</text>
<text x="782.0" y="180.0" class="legend">lower-left is better</text>
<text x="782.0" y="214.0" class="legend">balanced objective</text>
</svg>
