<svg xmlns="http://www.w3.org/2000/svg" width="1320" height="842" viewBox="0 0 1320 842">
<style>
  .title { font: 700 22px -apple-system, BlinkMacSystemFont, "Segoe UI", sans-serif; fill: #111827; }
  .subtitle { font: 13px -apple-system, BlinkMacSystemFont, "Segoe UI", sans-serif; fill: #4b5563; }
  .header { font: 700 12px -apple-system, BlinkMacSystemFont, "Segoe UI", sans-serif; fill: #374151; text-transform: uppercase; }
  .rowlabel { font: 700 13px -apple-system, BlinkMacSystemFont, "Segoe UI", sans-serif; fill: #111827; }
  .cell { font: 13px -apple-system, BlinkMacSystemFont, "Segoe UI", sans-serif; fill: #111827; }
  .smallcell { font: 12px -apple-system, BlinkMacSystemFont, "Segoe UI", sans-serif; fill: #111827; }
  .muted { font: 11.5px -apple-system, BlinkMacSystemFont, "Segoe UI", sans-serif; fill: #6b7280; }
  .legend { font: 11.5px -apple-system, BlinkMacSystemFont, "Segoe UI", sans-serif; fill: #374151; }
  .barlabel { font: 700 10.5px -apple-system, BlinkMacSystemFont, "Segoe UI", sans-serif; fill: #ffffff; }
</style>
<rect x="0" y="0" width="1320" height="842" fill="#ffffff" stroke="#fdfdfd" stroke-width="1" />
<rect x="1319" y="841" width="1" height="1" fill="#f8f8f8" />
<text x="660.0" y="30" text-anchor="middle" class="title">Master evidence table: validation selects by regime</text>
<text x="56.0" y="52.0" class="subtitle">Across Peclet, geometry, and flow fidelity, no sampler wins universally; lowest-mean mechanisms shift with the retained-state requirement.</text>
<text x="56.0" y="84.0" class="header">condition</text>
<text x="250.0" y="84.0" class="header">lowest mean sampler</text>
<text x="420.0" y="84.0" class="header">rank / split wins</text>
<text x="535.0" y="84.0" class="header">mean selected weights</text>
<text x="790.0" y="84.0" class="header">interpretation</text>
<rect x="40" y="74" width="1240" height="76" fill="#f9fafb" />
<text x="56.0" y="104.0" class="rowlabel">Core1 high Pe</text>
<circle cx="258" cy="100" r="6" fill="#7c3aed" />
<text x="274.0" y="104.0" class="cell">hybrid</text>
<text x="420.0" y="104.0" class="cell">2.00 / 1</text>
<rect x="535" y="86" width="210" height="24" fill="#ffffff" stroke="#d1d5db" />
<rect x="535.0" y="86" width="48.1" height="24" fill="#111827" />
<text x="559.1" y="102" class="barlabel" text-anchor="middle">0.23</text>
<rect x="583.1" y="86" width="70.0" height="24" fill="#d97706" />
<text x="618.1" y="102" class="barlabel" text-anchor="middle">0.33</text>
<rect x="653.1" y="86" width="65.6" height="24" fill="#7c3aed" />
<text x="685.9" y="102" class="barlabel" text-anchor="middle">0.31</text>
<rect x="718.8" y="86" width="26.2" height="24" fill="#be123c" />
<text x="790.0" y="96.0" class="smallcell">high Pe has a hybrid lowest-mean mechanism with broad mixture support</text>
<text x="790.0" y="116.0" class="muted">dominant selected weight: kNN (0.33)</text>
<rect x="40" y="158" width="1240" height="76" fill="#ffffff" />
<text x="56.0" y="188.0" class="rowlabel">Core1 baseline</text>
<circle cx="258" cy="184" r="6" fill="#111827" />
<text x="274.0" y="188.0" class="cell">Gaussian/Bayes</text>
<text x="420.0" y="188.0" class="cell">3.00 / 0</text>
<rect x="535" y="170" width="210" height="24" fill="#ffffff" stroke="#d1d5db" />
<rect x="535.0" y="170" width="52.5" height="24" fill="#111827" />
<text x="561.2" y="186" class="barlabel" text-anchor="middle">0.25</text>
<rect x="587.5" y="170" width="48.1" height="24" fill="#d97706" />
<text x="611.6" y="186" class="barlabel" text-anchor="middle">0.23</text>
<rect x="635.6" y="170" width="56.9" height="24" fill="#7c3aed" />
<text x="664.1" y="186" class="barlabel" text-anchor="middle">0.27</text>
<rect x="692.5" y="170" width="52.5" height="24" fill="#be123c" />
<text x="718.8" y="186" class="barlabel" text-anchor="middle">0.25</text>
<text x="790.0" y="180.0" class="smallcell">Gaussian/Bayes has the lowest mean objective but all memories remain active</text>
<text x="790.0" y="200.0" class="muted">dominant selected weight: hybrid (0.27)</text>
<rect x="40" y="242" width="1240" height="76" fill="#f9fafb" />
<text x="56.0" y="272.0" class="rowlabel">Core1 low Pe</text>
<circle cx="258" cy="268" r="6" fill="#2563eb" />
<text x="274.0" y="272.0" class="cell">pooled mix</text>
<text x="420.0" y="272.0" class="cell">1.50 / 2</text>
<rect x="535" y="254" width="210" height="24" fill="#ffffff" stroke="#d1d5db" />
<rect x="535.0" y="254" width="78.8" height="24" fill="#111827" />
<text x="574.4" y="270" class="barlabel" text-anchor="middle">0.38</text>
<rect x="613.8" y="254" width="48.1" height="24" fill="#d97706" />
<text x="637.8" y="270" class="barlabel" text-anchor="middle">0.23</text>
<rect x="661.9" y="254" width="65.6" height="24" fill="#7c3aed" />
<text x="694.7" y="270" class="barlabel" text-anchor="middle">0.31</text>
<rect x="727.5" y="254" width="17.5" height="24" fill="#be123c" />
<text x="790.0" y="264.0" class="smallcell">higher diffusion gives the lowest mean objective to a validation mixture with substantial velocity support</text>
<text x="790.0" y="284.0" class="muted">dominant selected weight: Gaussian (0.38)</text>
<rect x="40" y="326" width="1240" height="76" fill="#ffffff" />
<text x="56.0" y="356.0" class="rowlabel">Core2 graph</text>
<circle cx="258" cy="352" r="6" fill="#2563eb" />
<text x="274.0" y="356.0" class="cell">pooled mix</text>
<text x="420.0" y="356.0" class="cell">3.00 / 2</text>
<rect x="535" y="338" width="210" height="24" fill="#ffffff" stroke="#d1d5db" />
<rect x="535.0" y="338" width="56.9" height="24" fill="#111827" />
<text x="563.4" y="354" class="barlabel" text-anchor="middle">0.27</text>
<rect x="591.9" y="338" width="26.2" height="24" fill="#d97706" />
<rect x="618.1" y="338" width="83.1" height="24" fill="#7c3aed" />
<text x="659.7" y="354" class="barlabel" text-anchor="middle">0.40</text>
<rect x="701.2" y="338" width="43.7" height="24" fill="#be123c" />
<text x="723.1" y="354" class="barlabel" text-anchor="middle">0.21</text>
<text x="790.0" y="348.0" class="smallcell">second geometry gives the lowest mean objective to a mixture with the largest learned-context share</text>
<text x="790.0" y="368.0" class="muted">dominant selected weight: hybrid (0.40)</text>
<rect x="40" y="410" width="1240" height="76" fill="#f9fafb" />
<text x="56.0" y="440.0" class="rowlabel">Core2 OF 18 um</text>
<circle cx="258" cy="436" r="6" fill="#d97706" />
<text x="274.0" y="440.0" class="cell">kNN</text>
<text x="420.0" y="440.0" class="cell">3.75 / 1</text>
<rect x="535" y="422" width="210" height="24" fill="#ffffff" stroke="#d1d5db" />
<rect x="535.0" y="422" width="17.5" height="24" fill="#111827" />
<rect x="552.5" y="422" width="83.1" height="24" fill="#d97706" />
<text x="594.1" y="438" class="barlabel" text-anchor="middle">0.40</text>
<rect x="635.6" y="422" width="52.5" height="24" fill="#7c3aed" />
<text x="661.9" y="438" class="barlabel" text-anchor="middle">0.25</text>
<rect x="688.1" y="422" width="56.9" height="24" fill="#be123c" />
<text x="716.6" y="438" class="barlabel" text-anchor="middle">0.27</text>
<text x="790.0" y="432.0" class="smallcell">tight coarse OpenFOAM gives the lowest mean objective to archive proximity</text>
<text x="790.0" y="452.0" class="muted">dominant selected weight: kNN (0.40)</text>
<rect x="40" y="494" width="1240" height="76" fill="#ffffff" />
<text x="56.0" y="524.0" class="rowlabel">Core2 OF 12 um</text>
<circle cx="258" cy="520" r="6" fill="#111827" />
<text x="274.0" y="524.0" class="cell">Gaussian/Bayes</text>
<text x="420.0" y="524.0" class="cell">2.00 / 2</text>
<rect x="535" y="506" width="210" height="24" fill="#ffffff" stroke="#d1d5db" />
<rect x="535.0" y="506" width="26.2" height="24" fill="#111827" />
<rect x="561.2" y="506" width="105.0" height="24" fill="#d97706" />
<text x="613.8" y="522" class="barlabel" text-anchor="middle">0.50</text>
<rect x="666.2" y="506" width="26.2" height="24" fill="#7c3aed" />
<rect x="692.5" y="506" width="52.5" height="24" fill="#be123c" />
<text x="718.8" y="522" class="barlabel" text-anchor="middle">0.25</text>
<text x="790.0" y="516.0" class="smallcell">intermediate OpenFOAM resolution gives the lowest mean objective to velocity continuity</text>
<text x="790.0" y="536.0" class="muted">dominant selected weight: kNN (0.50)</text>
<rect x="40" y="578" width="1240" height="76" fill="#f9fafb" />
<text x="56.0" y="608.0" class="rowlabel">Core2 OF 6 um</text>
<circle cx="258" cy="604" r="6" fill="#be123c" />
<text x="274.0" y="608.0" class="cell">pair rerank</text>
<text x="420.0" y="608.0" class="cell">2.50 / 0</text>
<rect x="535" y="590" width="210" height="24" fill="#ffffff" stroke="#d1d5db" />
<rect x="535.0" y="590" width="65.6" height="24" fill="#111827" />
<text x="567.8" y="606" class="barlabel" text-anchor="middle">0.31</text>
<rect x="600.6" y="590" width="83.1" height="24" fill="#d97706" />
<text x="642.2" y="606" class="barlabel" text-anchor="middle">0.40</text>
<rect x="683.8" y="590" width="17.5" height="24" fill="#7c3aed" />
<rect x="701.2" y="590" width="43.8" height="24" fill="#be123c" />
<text x="723.1" y="606" class="barlabel" text-anchor="middle">0.21</text>
<text x="790.0" y="600.0" class="smallcell">strict full-resolution flow gives the lowest mean objective to pair organization while mixtures retain multiple memories</text>
<text x="790.0" y="620.0" class="muted">dominant selected weight: kNN (0.40)</text>
<rect x="40" y="700" width="1240" height="92" fill="#f8fafc" stroke="#e5e7eb" />
<text x="56.0" y="724.0" class="header">OpenFOAM objective sensitivity</text>
<text x="56.0" y="750.0" class="cell">Gaussian/Bayes has the lowest mean objective in 0/8 objective regimes; pair-heavy selects mean mix.</text>
<text x="56.0" y="774.0" class="muted">Interpretation: high-fidelity flow reinforces the 2019 physics kernel, while pair/mixing priorities preserve a role for learned context.</text>
<rect x="960" y="734" width="18" height="12" fill="#111827" />
<text x="986.0" y="744.0" class="legend">Gaussian</text>
<rect x="960" y="754" width="18" height="12" fill="#d97706" />
<text x="986.0" y="764.0" class="legend">kNN</text>
<rect x="960" y="774" width="18" height="12" fill="#7c3aed" />
<text x="986.0" y="784.0" class="legend">hybrid</text>
<rect x="960" y="794" width="18" height="12" fill="#be123c" />
<text x="986.0" y="804.0" class="legend">pair</text>
</svg>
