<svg xmlns="http://www.w3.org/2000/svg" width="1060" height="560" viewBox="0 0 1060 560">
<style>
  .title { font: 700 20px -apple-system, BlinkMacSystemFont, "Segoe UI", sans-serif; fill: #111827; }
  .subtitle { font: 13px -apple-system, BlinkMacSystemFont, "Segoe UI", sans-serif; fill: #4b5563; }
  .panel-title { font: 700 13px -apple-system, BlinkMacSystemFont, "Segoe UI", sans-serif; fill: #111827; }
  .axis { stroke: #374151; stroke-width: 1.1; }
  .grid { stroke: #e5e7eb; stroke-width: 1; }
  .tick { font: 10.5px -apple-system, BlinkMacSystemFont, "Segoe UI", sans-serif; fill: #4b5563; }
  .label { font: 700 11.5px -apple-system, BlinkMacSystemFont, "Segoe UI", sans-serif; fill: #374151; }
  .legend { font: 12px -apple-system, BlinkMacSystemFont, "Segoe UI", sans-serif; fill: #374151; }
</style>
<rect x="0" y="0" width="1060" height="560" fill="#ffffff" stroke="#fdfdfd" stroke-width="1" />
<rect x="1059" y="559" width="1" height="1" fill="#f8f8f8" />
<text x="530.0" y="30" text-anchor="middle" class="title">OpenFOAM changes displacement tails and breakthrough</text>
<text x="78.0" y="50.0" class="subtitle">Particle-step displacement distributions and breakthrough quantiles from the two reference trajectory sets.</text>
<text x="72" y="78" class="panel-title">step displacement quantiles</text>
<line x1="72" y1="452" x2="512" y2="452" class="axis" />
<line x1="72" y1="452" x2="72" y2="92" class="axis" />
<line x1="72.0" y1="362.0" x2="512.0" y2="362.0" class="grid" />
<text x="64.0" y="366.0" class="tick" text-anchor="end">0.25</text>
<line x1="72.0" y1="272.0" x2="512.0" y2="272.0" class="grid" />
<text x="64.0" y="276.0" class="tick" text-anchor="end">0.50</text>
<line x1="72.0" y1="182.0" x2="512.0" y2="182.0" class="grid" />
<text x="64.0" y="186.0" class="tick" text-anchor="end">0.75</text>
<polyline fill="none" stroke="#2563eb" stroke-width="2.6" points="84.2,416.0 259.4,272.0 380.8,128.0 414.3,110.0 486.8,95.6" />
<polyline fill="none" stroke="#dc2626" stroke-width="2.6" points="72.0,416.0 259.4,272.0 386.3,128.0 424.4,110.0 512.0,95.6" />
<line x1="251.4" y1="92.0" x2="251.4" y2="452.0" class="grid" />
<text x="251.4" y="472.0" class="tick" text-anchor="middle">0.05</text>
<line x1="401.6" y1="92.0" x2="401.6" y2="452.0" class="grid" />
<text x="401.6" y="472.0" class="tick" text-anchor="middle">0.10</text>
<text x="292.0" y="494.0" class="label" text-anchor="middle">step displacement (voxels)</text>
<text x="20.0" y="272.0" class="label" text-anchor="middle" transform="rotate(-90 20.0,272.0)">probability</text>
<text x="590" y="78" class="panel-title">breakthrough quantiles</text>
<line x1="590" y1="452" x2="980" y2="452" class="axis" />
<line x1="590" y1="452" x2="590" y2="92" class="axis" />
<line x1="590.0" y1="452.0" x2="980.0" y2="452.0" class="grid" />
<text x="582.0" y="456.0" class="tick" text-anchor="end">0</text>
<line x1="590.0" y1="362.0" x2="980.0" y2="362.0" class="grid" />
<text x="582.0" y="366.0" class="tick" text-anchor="end">196</text>
<line x1="590.0" y1="272.0" x2="980.0" y2="272.0" class="grid" />
<text x="582.0" y="276.0" class="tick" text-anchor="end">391</text>
<line x1="590.0" y1="182.0" x2="980.0" y2="182.0" class="grid" />
<text x="582.0" y="186.0" class="tick" text-anchor="end">587</text>
<line x1="590.0" y1="92.0" x2="980.0" y2="92.0" class="grid" />
<text x="582.0" y="96.0" class="tick" text-anchor="end">782</text>
<line x1="638.1" y1="396.8" x2="638.1" y2="160.8" stroke="#2563eb" stroke-width="2.2" />
<circle cx="638.1" cy="331.0" r="5" fill="#2563eb" stroke="#ffffff" stroke-width="1.2" />
<line x1="671.9" y1="413.7" x2="671.9" y2="145.5" stroke="#dc2626" stroke-width="2.2" />
<circle cx="671.9" cy="325.9" r="5" fill="#dc2626" stroke="#ffffff" stroke-width="1.2" />
<text x="655.0" y="472.0" class="tick" text-anchor="middle">x=6</text>
<line x1="768.1" y1="360.7" x2="768.1" y2="118.7" stroke="#2563eb" stroke-width="2.2" />
<circle cx="768.1" cy="269.3" r="5" fill="#2563eb" stroke="#ffffff" stroke-width="1.2" />
<line x1="801.9" y1="382.1" x2="801.9" y2="137.9" stroke="#dc2626" stroke-width="2.2" />
<circle cx="801.9" cy="287.3" r="5" fill="#dc2626" stroke="#ffffff" stroke-width="1.2" />
<text x="785.0" y="472.0" class="tick" text-anchor="middle">x=10</text>
<line x1="898.1" y1="328.4" x2="898.1" y2="131.6" stroke="#2563eb" stroke-width="2.2" />
<circle cx="898.1" cy="244.5" r="5" fill="#2563eb" stroke="#ffffff" stroke-width="1.2" />
<line x1="931.9" y1="358.0" x2="931.9" y2="119.9" stroke="#dc2626" stroke-width="2.2" />
<circle cx="931.9" cy="256.9" r="5" fill="#dc2626" stroke="#ffffff" stroke-width="1.2" />
<text x="915.0" y="472.0" class="tick" text-anchor="middle">x=14</text>
<text x="785.0" y="494.0" class="label" text-anchor="middle">control plane</text>
<text x="538.0" y="272.0" class="label" text-anchor="middle" transform="rotate(-90 538.0,272.0)">time index</text>
<line x1="796" y1="70" x2="824" y2="70" stroke="#2563eb" stroke-width="3" />
<text x="834" y="74" class="legend">Core2 graph flow</text>
<line x1="796" y1="94" x2="824" y2="94" stroke="#dc2626" stroke-width="3" />
<text x="834" y="98" class="legend">Core2 OpenFOAM</text>
</svg>
