<svg xmlns="http://www.w3.org/2000/svg" width="860" height="480" viewBox="0 0 860 480">
<style>
  .title { font: 700 18px -apple-system, BlinkMacSystemFont, "Segoe UI", sans-serif; fill: #111827; }
  .axis { stroke: #374151; stroke-width: 1.2; }
  .grid { stroke: #e5e7eb; stroke-width: 1; }
  .tick { font: 11px -apple-system, BlinkMacSystemFont, "Segoe UI", sans-serif; fill: #4b5563; }
  .label { font: 13px -apple-system, BlinkMacSystemFont, "Segoe UI", sans-serif; fill: #374151; }
  .legend { font: 12px -apple-system, BlinkMacSystemFont, "Segoe UI", sans-serif; fill: #374151; }
</style>
<rect width="100%" height="100%" fill="#ffffff" />
<text x="430.0" y="26" text-anchor="middle" class="title">Dilution Index</text>
<line x1="78" y1="408" x2="680" y2="408" class="axis" />
<line x1="78" y1="408" x2="78" y2="48" class="axis" />
<text x="379.0" y="462" text-anchor="middle" class="label">time step</text>
<text x="18" y="228.0" text-anchor="middle" class="label" transform="rotate(-90 18,228.0)">occupancy entropy volume</text>
<line x1="78.0" y1="48" x2="78.0" y2="408" class="grid" />
<text x="78.0" y="426" text-anchor="middle" class="tick">100</text>
<line x1="78" y1="408.0" x2="680" y2="408.0" class="grid" />
<text x="70" y="412.0" text-anchor="end" class="tick">1631.7</text>
<line x1="228.5" y1="48" x2="228.5" y2="408" class="grid" />
<text x="228.5" y="426" text-anchor="middle" class="tick">175</text>
<line x1="78" y1="318.0" x2="680" y2="318.0" class="grid" />
<text x="70" y="322.0" text-anchor="end" class="tick">1826.3</text>
<line x1="379.0" y1="48" x2="379.0" y2="408" class="grid" />
<text x="379.0" y="426" text-anchor="middle" class="tick">250</text>
<line x1="78" y1="228.0" x2="680" y2="228.0" class="grid" />
<text x="70" y="232.0" text-anchor="end" class="tick">2020.8</text>
<line x1="529.5" y1="48" x2="529.5" y2="408" class="grid" />
<text x="529.5" y="426" text-anchor="middle" class="tick">325</text>
<line x1="78" y1="138.0" x2="680" y2="138.0" class="grid" />
<text x="70" y="142.0" text-anchor="end" class="tick">2215.4</text>
<line x1="680.0" y1="48" x2="680.0" y2="408" class="grid" />
<text x="680.0" y="426" text-anchor="middle" class="tick">400</text>
<line x1="78" y1="48.0" x2="680" y2="48.0" class="grid" />
<text x="70" y="52.0" text-anchor="end" class="tick">2410.0</text>
<polyline fill="none" stroke="#111827" stroke-width="2.6" points="78.0,312.6 278.7,275.8 479.3,189.9 680.0,204.8" />
<circle cx="78.0" cy="312.6" r="3.2" fill="#111827" />
<circle cx="278.7" cy="275.8" r="3.2" fill="#111827" />
<circle cx="479.3" cy="189.9" r="3.2" fill="#111827" />
<circle cx="680.0" cy="204.8" r="3.2" fill="#111827" />
<line x1="702" y1="48" x2="728" y2="48" stroke="#111827" stroke-width="3" />
<text x="736" y="52" class="legend">reference</text>
<polyline fill="none" stroke="#9ca3af" stroke-width="2.6" points="78.0,383.2 278.7,233.8 479.3,262.0 680.0,169.0" />
<circle cx="78.0" cy="383.2" r="3.2" fill="#9ca3af" />
<circle cx="278.7" cy="233.8" r="3.2" fill="#9ca3af" />
<circle cx="479.3" cy="262.0" r="3.2" fill="#9ca3af" />
<circle cx="680.0" cy="169.0" r="3.2" fill="#9ca3af" />
<line x1="702" y1="72" x2="728" y2="72" stroke="#9ca3af" stroke-width="3" />
<text x="736" y="76" class="legend">unconditional</text>
<polyline fill="none" stroke="#2563eb" stroke-width="2.6" points="78.0,262.0 278.7,189.9 479.3,89.5 680.0,122.0" />
<circle cx="78.0" cy="262.0" r="3.2" fill="#2563eb" />
<circle cx="278.7" cy="189.9" r="3.2" fill="#2563eb" />
<circle cx="479.3" cy="89.5" r="3.2" fill="#2563eb" />
<circle cx="680.0" cy="122.0" r="3.2" fill="#2563eb" />
<line x1="702" y1="96" x2="728" y2="96" stroke="#2563eb" stroke-width="3" />
<text x="736" y="100" class="legend">knn_conditional</text>
<polyline fill="none" stroke="#dc2626" stroke-width="2.6" points="78.0,267.2 278.7,169.0 479.3,138.0 680.0,89.5" />
<circle cx="78.0" cy="267.2" r="3.2" fill="#dc2626" />
<circle cx="278.7" cy="169.0" r="3.2" fill="#dc2626" />
<circle cx="479.3" cy="138.0" r="3.2" fill="#dc2626" />
<circle cx="680.0" cy="89.5" r="3.2" fill="#dc2626" />
<line x1="702" y1="120" x2="728" y2="120" stroke="#dc2626" stroke-width="3" />
<text x="736" y="124" class="legend">gaussian_bayes</text>
<polyline fill="none" stroke="#f59e0b" stroke-width="2.6" points="78.0,228.4 278.7,153.6 479.3,159.5 680.0,105.9" />
<circle cx="78.0" cy="228.4" r="3.2" fill="#f59e0b" />
<circle cx="278.7" cy="153.6" r="3.2" fill="#f59e0b" />
<circle cx="479.3" cy="159.5" r="3.2" fill="#f59e0b" />
<circle cx="680.0" cy="105.9" r="3.2" fill="#f59e0b" />
<line x1="702" y1="144" x2="728" y2="144" stroke="#f59e0b" stroke-width="3" />
<text x="736" y="148" class="legend">adaptive_gaussian</text>
<polyline fill="none" stroke="#374151" stroke-width="2.6" points="78.0,272.4 278.7,195.5 479.3,122.0 680.0,72.8" />
<circle cx="78.0" cy="272.4" r="3.2" fill="#374151" />
<circle cx="278.7" cy="195.5" r="3.2" fill="#374151" />
<circle cx="479.3" cy="122.0" r="3.2" fill="#374151" />
<circle cx="680.0" cy="72.8" r="3.2" fill="#374151" />
<line x1="702" y1="168" x2="728" y2="168" stroke="#374151" stroke-width="3" />
<text x="736" y="172" class="legend">horizon_rerank</text>
<polyline fill="none" stroke="#374151" stroke-width="2.6" points="78.0,263.9 278.7,244.6 479.3,169.0 680.0,122.0" />
<circle cx="78.0" cy="263.9" r="3.2" fill="#374151" />
<circle cx="278.7" cy="244.6" r="3.2" fill="#374151" />
<circle cx="479.3" cy="169.0" r="3.2" fill="#374151" />
<circle cx="680.0" cy="122.0" r="3.2" fill="#374151" />
<line x1="702" y1="192" x2="728" y2="192" stroke="#374151" stroke-width="3" />
<text x="736" y="196" class="legend">pair_rerank</text>
<polyline fill="none" stroke="#7c3aed" stroke-width="2.6" points="78.0,343.8 278.7,143.9 479.3,138.0 680.0,122.0" />
<circle cx="78.0" cy="343.8" r="3.2" fill="#7c3aed" />
<circle cx="278.7" cy="143.9" r="3.2" fill="#7c3aed" />
<circle cx="479.3" cy="138.0" r="3.2" fill="#7c3aed" />
<circle cx="680.0" cy="122.0" r="3.2" fill="#7c3aed" />
<line x1="702" y1="216" x2="728" y2="216" stroke="#7c3aed" stroke-width="3" />
<text x="736" y="220" class="legend">contrastive</text>
<polyline fill="none" stroke="#059669" stroke-width="2.6" points="78.0,248.0 278.7,189.9 479.3,153.6 680.0,138.0" />
<circle cx="78.0" cy="248.0" r="3.2" fill="#059669" />
<circle cx="278.7" cy="189.9" r="3.2" fill="#059669" />
<circle cx="479.3" cy="153.6" r="3.2" fill="#059669" />
<circle cx="680.0" cy="138.0" r="3.2" fill="#059669" />
<line x1="702" y1="240" x2="728" y2="240" stroke="#059669" stroke-width="3" />
<text x="736" y="244" class="legend">hybrid</text>
</svg>
