<svg xmlns="http://www.w3.org/2000/svg" width="860" height="480" viewBox="0 0 860 480">
<style>
  .title { font: 700 18px -apple-system, BlinkMacSystemFont, "Segoe UI", sans-serif; fill: #111827; }
  .axis { stroke: #374151; stroke-width: 1.2; }
  .grid { stroke: #e5e7eb; stroke-width: 1; }
  .tick { font: 11px -apple-system, BlinkMacSystemFont, "Segoe UI", sans-serif; fill: #4b5563; }
  .label { font: 13px -apple-system, BlinkMacSystemFont, "Segoe UI", sans-serif; fill: #374151; }
  .legend { font: 12px -apple-system, BlinkMacSystemFont, "Segoe UI", sans-serif; fill: #374151; }
</style>
<rect width="100%" height="100%" fill="#ffffff" />
<text x="430.0" y="26" text-anchor="middle" class="title">Particle-Pair Median Separation</text>
<line x1="78" y1="408" x2="680" y2="408" class="axis" />
<line x1="78" y1="408" x2="78" y2="48" class="axis" />
<text x="379.0" y="462" text-anchor="middle" class="label">time step</text>
<text x="18" y="228.0" text-anchor="middle" class="label" transform="rotate(-90 18,228.0)">median separation (voxels)</text>
<line x1="78.0" y1="48" x2="78.0" y2="408" class="grid" />
<text x="78.0" y="426" text-anchor="middle" class="tick">100</text>
<line x1="78" y1="408.0" x2="680" y2="408.0" class="grid" />
<text x="70" y="412.0" text-anchor="end" class="tick">33.3</text>
<line x1="228.5" y1="48" x2="228.5" y2="408" class="grid" />
<text x="228.5" y="426" text-anchor="middle" class="tick">175</text>
<line x1="78" y1="318.0" x2="680" y2="318.0" class="grid" />
<text x="70" y="322.0" text-anchor="end" class="tick">35.2</text>
<line x1="379.0" y1="48" x2="379.0" y2="408" class="grid" />
<text x="379.0" y="426" text-anchor="middle" class="tick">250</text>
<line x1="78" y1="228.0" x2="680" y2="228.0" class="grid" />
<text x="70" y="232.0" text-anchor="end" class="tick">37.1</text>
<line x1="529.5" y1="48" x2="529.5" y2="408" class="grid" />
<text x="529.5" y="426" text-anchor="middle" class="tick">325</text>
<line x1="78" y1="138.0" x2="680" y2="138.0" class="grid" />
<text x="70" y="142.0" text-anchor="end" class="tick">39.1</text>
<line x1="680.0" y1="48" x2="680.0" y2="408" class="grid" />
<text x="680.0" y="426" text-anchor="middle" class="tick">400</text>
<line x1="78" y1="48.0" x2="680" y2="48.0" class="grid" />
<text x="70" y="52.0" text-anchor="end" class="tick">41.0</text>
<polyline fill="none" stroke="#111827" stroke-width="2.6" points="78.0,383.2 278.7,380.7 479.3,355.9 680.0,339.6" />
<circle cx="78.0" cy="383.2" r="3.2" fill="#111827" />
<circle cx="278.7" cy="380.7" r="3.2" fill="#111827" />
<circle cx="479.3" cy="355.9" r="3.2" fill="#111827" />
<circle cx="680.0" cy="339.6" r="3.2" fill="#111827" />
<line x1="702" y1="48" x2="728" y2="48" stroke="#111827" stroke-width="3" />
<text x="736" y="52" class="legend">reference</text>
<polyline fill="none" stroke="#9ca3af" stroke-width="2.6" points="78.0,210.1 278.7,213.7 479.3,213.8 680.0,207.8" />
<circle cx="78.0" cy="210.1" r="3.2" fill="#9ca3af" />
<circle cx="278.7" cy="213.7" r="3.2" fill="#9ca3af" />
<circle cx="479.3" cy="213.8" r="3.2" fill="#9ca3af" />
<circle cx="680.0" cy="207.8" r="3.2" fill="#9ca3af" />
<line x1="702" y1="72" x2="728" y2="72" stroke="#9ca3af" stroke-width="3" />
<text x="736" y="76" class="legend">unconditional</text>
<polyline fill="none" stroke="#2563eb" stroke-width="2.6" points="78.0,160.2 278.7,139.9 479.3,136.7 680.0,137.8" />
<circle cx="78.0" cy="160.2" r="3.2" fill="#2563eb" />
<circle cx="278.7" cy="139.9" r="3.2" fill="#2563eb" />
<circle cx="479.3" cy="136.7" r="3.2" fill="#2563eb" />
<circle cx="680.0" cy="137.8" r="3.2" fill="#2563eb" />
<line x1="702" y1="96" x2="728" y2="96" stroke="#2563eb" stroke-width="3" />
<text x="736" y="100" class="legend">knn_conditional</text>
<polyline fill="none" stroke="#dc2626" stroke-width="2.6" points="78.0,239.0 278.7,210.6 479.3,204.1 680.0,187.9" />
<circle cx="78.0" cy="239.0" r="3.2" fill="#dc2626" />
<circle cx="278.7" cy="210.6" r="3.2" fill="#dc2626" />
<circle cx="479.3" cy="204.1" r="3.2" fill="#dc2626" />
<circle cx="680.0" cy="187.9" r="3.2" fill="#dc2626" />
<line x1="702" y1="120" x2="728" y2="120" stroke="#dc2626" stroke-width="3" />
<text x="736" y="124" class="legend">gaussian_bayes</text>
<polyline fill="none" stroke="#f59e0b" stroke-width="2.6" points="78.0,204.9 278.7,211.6 479.3,196.9 680.0,180.2" />
<circle cx="78.0" cy="204.9" r="3.2" fill="#f59e0b" />
<circle cx="278.7" cy="211.6" r="3.2" fill="#f59e0b" />
<circle cx="479.3" cy="196.9" r="3.2" fill="#f59e0b" />
<circle cx="680.0" cy="180.2" r="3.2" fill="#f59e0b" />
<line x1="702" y1="144" x2="728" y2="144" stroke="#f59e0b" stroke-width="3" />
<text x="736" y="148" class="legend">adaptive_gaussian</text>
<polyline fill="none" stroke="#374151" stroke-width="2.6" points="78.0,99.4 278.7,110.8 479.3,112.7 680.0,72.8" />
<circle cx="78.0" cy="99.4" r="3.2" fill="#374151" />
<circle cx="278.7" cy="110.8" r="3.2" fill="#374151" />
<circle cx="479.3" cy="112.7" r="3.2" fill="#374151" />
<circle cx="680.0" cy="72.8" r="3.2" fill="#374151" />
<line x1="702" y1="168" x2="728" y2="168" stroke="#374151" stroke-width="3" />
<text x="736" y="172" class="legend">horizon_rerank</text>
<polyline fill="none" stroke="#374151" stroke-width="2.6" points="78.0,138.2 278.7,157.9 479.3,126.7 680.0,111.0" />
<circle cx="78.0" cy="138.2" r="3.2" fill="#374151" />
<circle cx="278.7" cy="157.9" r="3.2" fill="#374151" />
<circle cx="479.3" cy="126.7" r="3.2" fill="#374151" />
<circle cx="680.0" cy="111.0" r="3.2" fill="#374151" />
<line x1="702" y1="192" x2="728" y2="192" stroke="#374151" stroke-width="3" />
<text x="736" y="196" class="legend">pair_rerank</text>
<polyline fill="none" stroke="#7c3aed" stroke-width="2.6" points="78.0,171.8 278.7,165.3 479.3,150.8 680.0,153.9" />
<circle cx="78.0" cy="171.8" r="3.2" fill="#7c3aed" />
<circle cx="278.7" cy="165.3" r="3.2" fill="#7c3aed" />
<circle cx="479.3" cy="150.8" r="3.2" fill="#7c3aed" />
<circle cx="680.0" cy="153.9" r="3.2" fill="#7c3aed" />
<line x1="702" y1="216" x2="728" y2="216" stroke="#7c3aed" stroke-width="3" />
<text x="736" y="220" class="legend">contrastive</text>
<polyline fill="none" stroke="#059669" stroke-width="2.6" points="78.0,349.5 278.7,349.3 479.3,323.8 680.0,315.6" />
<circle cx="78.0" cy="349.5" r="3.2" fill="#059669" />
<circle cx="278.7" cy="349.3" r="3.2" fill="#059669" />
<circle cx="479.3" cy="323.8" r="3.2" fill="#059669" />
<circle cx="680.0" cy="315.6" r="3.2" fill="#059669" />
<line x1="702" y1="240" x2="728" y2="240" stroke="#059669" stroke-width="3" />
<text x="736" y="244" class="legend">hybrid</text>
</svg>
